<svg width="56" height="40" viewBox="0 0 56 40" fill="none" xmlns="http://www.w3.org/2000/svg">
<g filter="url(#filter0_f_38_6756)">
<path d="M43.3763 37.9025C45.6749 37.2086 49.8596 35.3124 51.3636 33.909C53.0978 32.44 50.2218 30.6706 49.795 30.4229C49.3682 30.1753 21.9866 16.5271 18.3283 14.9173C14.6701 13.3075 5.30901 18.9799 2.50399 20.537C0.217553 21.8063 1.8333 22.704 2.13816 22.9517C2.44302 23.1994 23.3776 34.0328 29.6577 37.0047C34.4136 39.2554 38.8644 39.2646 43.3763 37.9025Z" fill="black" fill-opacity="0.2"/>
</g>
<path d="M23.4561 24.4296L24.9894 27.7881C25.1173 28.3845 25.3156 29.0003 25.5888 29.6126C25.8845 30.2753 26.2424 30.8748 26.6359 31.3966L28.138 34.6909L30.8632 33.4251C30.8791 33.4184 30.8957 33.4134 30.9115 33.4063C32.5817 32.6568 32.907 29.743 31.6381 26.8987C30.369 24.0543 27.9857 22.3554 26.3154 23.105C26.297 23.1132 26.2792 23.123 26.2611 23.1318L26.2599 23.1291L23.4561 24.4296Z" fill="#2E2E2E"/>
<ellipse cx="3.31627" cy="5.63295" rx="3.31627" ry="5.63295" transform="matrix(-0.911976 0.409256 0.40762 0.913593 26.5605 23.0452)" fill="#2E2E2E"/>
<g filter="url(#filter1_i_38_6756)">
<ellipse cx="2.48732" cy="4.22491" rx="2.48732" ry="4.22491" transform="matrix(-0.911976 0.409256 0.40762 0.913593 26.283 24.6733)" fill="url(#paint0_linear_38_6756)"/>
</g>
<g filter="url(#filter2_di_38_6756)">
<path d="M25.8727 32.6842C26.3272 32.8943 26.7789 32.9334 27.1688 32.7584C27.2194 32.7357 27.2676 32.7092 27.3142 32.6803L26.2494 30.8325C26.1327 30.8717 26.0042 30.867 25.8727 30.8217L25.8727 32.6842ZM24.6488 31.6865C24.973 32.0778 25.3297 32.3853 25.6911 32.5884L25.6911 30.7347C25.577 30.666 25.4643 30.5709 25.3593 30.4533L24.6488 31.6865ZM26.6417 30.2638C26.6113 30.4699 26.5321 30.6383 26.4075 30.7435L27.4616 32.5737C27.8295 32.2649 28.0418 31.7401 28.0911 31.1041L26.6417 30.2638ZM23.7763 30.209C23.8015 30.2711 23.8247 30.3346 23.8524 30.3966C24.0418 30.8212 24.2733 31.2037 24.5268 31.535L25.2373 30.2999C25.1513 30.1813 25.0726 30.0474 25.007 29.9003C25.004 29.8936 25.0021 29.8864 24.9992 29.8797L23.7763 30.209ZM26.5539 29.4625C26.6227 29.6714 26.6554 29.8764 26.6554 30.0625L28.1028 30.9009C28.1147 30.3583 28.0126 29.7488 27.7914 29.1303L26.5539 29.4625ZM23.3742 28.373C23.3851 28.8913 23.4936 29.4629 23.708 30.04L24.9328 29.7107C24.874 29.54 24.8391 29.3716 24.8264 29.2133L23.3742 28.373ZM26.265 28.8791C26.3411 28.9889 26.4108 29.111 26.47 29.2436C26.477 29.2595 26.4838 29.2756 26.4905 29.2915L27.728 28.9593C27.6948 28.8747 27.6603 28.7897 27.6226 28.7052C27.4434 28.3035 27.2275 27.9393 26.9902 27.6206L26.265 28.8791ZM23.8592 26.6815C23.5585 27.0286 23.394 27.5505 23.3742 28.1619L24.8235 29.0013C24.8329 28.8295 24.8712 28.6774 24.9396 28.5576L23.8592 26.6815ZM25.8727 28.4668C25.967 28.5353 26.0586 28.6223 26.145 28.7238L26.8701 27.4642C26.5611 27.081 26.2195 26.7748 25.8727 26.5633L25.8727 28.4668ZM25.6911 26.4636C25.2067 26.216 24.7217 26.157 24.3062 26.3434C24.1909 26.3952 24.0866 26.4646 23.992 26.5476L25.0626 28.4062C25.0989 28.3746 25.1385 28.3479 25.1827 28.328C25.3354 28.2595 25.513 28.2747 25.6911 28.3583L25.6911 26.4636Z" fill="#4C4C4C"/>
</g>
<path d="M23.4565 24.3702L24.9874 27.7233C25.1152 28.3215 25.3141 28.9392 25.5881 29.5536C25.8848 30.2186 26.2439 30.8201 26.639 31.3432L28.1383 34.6313L30.8623 33.366C30.8781 33.3594 30.8949 33.3543 30.9106 33.3473C32.5806 32.5975 32.9059 29.6839 31.6371 26.8398C30.3681 23.9955 27.9849 22.2968 26.3146 23.0461C26.2968 23.054 26.2795 23.0636 26.2621 23.0721L26.2609 23.0694L23.4565 24.3702Z" fill="#2E2E2E"/>
<path d="M22.7881 30.9058C24.0562 33.748 26.4382 35.4444 28.1085 34.6948C29.7788 33.9453 30.1049 31.0336 28.8368 28.1914C27.5687 25.3492 25.1149 23.4998 23.4446 24.2493C21.7743 24.9989 21.5199 28.0636 22.7881 30.9058Z" fill="#2E2E2E"/>
<g filter="url(#filter3_i_38_6756)">
<ellipse cx="2.3313" cy="4.07414" rx="2.3313" ry="4.07414" transform="matrix(-0.939744 0.342056 0.316393 0.948614 26.6699 24.8887)" fill="url(#paint1_linear_38_6756)"/>
</g>
<g filter="url(#filter4_di_38_6756)">
<path d="M24.2535 30.4352C24.7482 31.668 25.6243 32.4868 26.3975 32.4673L25.8799 30.9534C25.5963 30.8622 25.3086 30.5727 25.1057 30.1646L24.2535 30.4352ZM26.6651 29.6695C26.7438 30.1732 26.6486 30.6212 26.4151 30.8414L26.9161 32.3087C27.5801 31.8873 27.8223 30.6955 27.5122 29.4004L26.6651 29.6695ZM24.4886 26.8792C23.8856 27.3952 23.7072 28.6268 24.0782 29.9205L24.9173 29.6537C24.7907 29.1544 24.8299 28.6828 25.0061 28.395L24.4886 26.8792ZM27.3591 28.8769C26.8543 27.4401 25.8315 26.4921 24.9805 26.6418L25.4823 28.1111C25.8626 28.1202 26.2876 28.5335 26.5231 29.1431L27.3591 28.8769Z" fill="#A9A8A8"/>
</g>
<path d="M3.83385 16.1815L4.98475 18.7018C5.08061 19.1473 5.22611 19.6079 5.4301 20.0651C5.65177 20.5619 5.92156 21.0099 6.21659 21.401L7.34155 23.8687L9.39921 22.9131C9.40504 22.9105 9.41157 22.9085 9.41738 22.9059C10.6683 22.344 10.9119 20.1619 9.96133 18.0312C9.0106 15.9004 7.22492 14.6281 5.97365 15.1896C5.96056 15.1955 5.94782 15.2021 5.93496 15.2083L5.93455 15.2074L3.83385 16.1815Z" fill="#2E2E2E"/>
<ellipse cx="2.48435" cy="4.21986" rx="2.48435" ry="4.21986" transform="matrix(-0.945518 0.324327 0.32255 0.946978 6.6011 15.2148)" fill="#2E2E2E"/>
<g filter="url(#filter5_i_38_6756)">
<ellipse cx="1.86335" cy="3.16505" rx="1.86335" ry="3.16505" transform="matrix(-0.911976 0.409256 0.40762 0.913593 5.95078 16.3645)" fill="url(#paint2_linear_38_6756)"/>
</g>
<g filter="url(#filter6_di_38_6756)">
<path d="M5.68729 22.3846C6.01245 22.5241 6.33341 22.547 6.61251 22.4217C6.63618 22.4111 6.65735 22.3961 6.67985 22.3836L5.87761 20.9912C5.81684 21.003 5.75303 20.9991 5.68729 20.9824L5.68729 22.3846ZM4.75524 21.6547C4.99015 21.9308 5.24614 22.1489 5.50576 22.2947L5.50576 20.9013C5.43185 20.8565 5.35926 20.7978 5.29007 20.7254L4.75524 21.6547ZM6.20748 20.5993C6.18024 20.7326 6.1255 20.8414 6.04157 20.912L6.83015 22.281C7.09587 22.0579 7.25559 21.6862 7.29959 21.2325L6.20748 20.5993ZM4.08768 20.5534C4.10131 20.586 4.11317 20.6195 4.12769 20.6521C4.26942 20.9698 4.44263 21.2562 4.63227 21.5042L5.1671 20.5769C5.10825 20.4955 5.05336 20.4055 5.00704 20.3062L4.08768 20.5534ZM6.16552 19.9955C6.20784 20.1367 6.22691 20.2746 6.227 20.401L7.31228 21.0303C7.32099 20.636 7.24914 20.1944 7.09367 19.7453L6.16552 19.9955ZM3.76951 19.1883C3.78365 19.5624 3.8672 19.9707 4.02034 20.3834L4.9397 20.1362C4.90301 20.0294 4.87904 19.9244 4.8665 19.8235L3.76951 19.1883ZM5.96252 19.5587C6.00841 19.6296 6.05253 19.7057 6.08939 19.7883C6.09453 19.7998 6.0982 19.812 6.10306 19.8235L7.0312 19.5743C7.00644 19.5113 6.98025 19.4477 6.95215 19.3847C6.8252 19.1003 6.67345 18.8411 6.50711 18.6118L5.96252 19.5587ZM4.10134 17.9063C3.89579 18.1658 3.7836 18.5418 3.76951 18.9782L4.85772 19.6085C4.86335 19.5022 4.88232 19.4061 4.91823 19.3251L4.10134 17.9063ZM5.68729 19.245C5.74153 19.2895 5.79416 19.3413 5.84442 19.4004L6.38804 18.4555C6.1704 18.1857 5.93101 17.9675 5.68729 17.8106L5.68729 19.245ZM5.50576 17.706C5.14276 17.5204 4.77963 17.4764 4.46831 17.6161C4.38157 17.655 4.30317 17.707 4.23212 17.7695L5.03339 19.162C5.061 19.1377 5.09143 19.1175 5.12513 19.1023C5.23965 19.051 5.37225 19.063 5.50576 19.1258L5.50576 17.706Z" fill="#4C4C4C"/>
</g>
<path d="M3.83238 16.1371L4.98468 18.6605C5.08057 19.1048 5.22588 19.5641 5.42933 20.0201C5.65056 20.5159 5.91952 20.9632 6.21386 21.3538L7.34024 23.8246L9.3999 22.8681C9.40523 22.8657 9.411 22.8641 9.41631 22.8617C10.6675 22.3 10.911 20.117 9.96032 17.9863C9.00963 15.8556 7.22458 14.5833 5.97334 15.1447C5.96 15.1506 5.94684 15.1574 5.93374 15.1638L5.93333 15.1629L3.83238 16.1371Z" fill="#2E2E2E"/>
<path d="M3.0862 20.6459C3.64987 22.9083 5.29882 24.4425 6.76923 24.0728C8.23963 23.7031 8.97469 21.5694 8.41102 19.307C7.84735 17.0447 6.16529 15.3882 4.69489 15.758C3.22448 16.1277 2.52253 18.3836 3.0862 20.6459Z" fill="#2E2E2E"/>
<g filter="url(#filter7_i_38_6756)">
<ellipse cx="1.74647" cy="3.05209" rx="1.74647" ry="3.05209" transform="matrix(-0.963522 0.267857 0.241582 0.970366 6.35034 16.717)" fill="url(#paint3_linear_38_6756)"/>
</g>
<g filter="url(#filter8_di_38_6756)">
<path d="M4.26984 20.8499C4.55272 21.6515 5.0563 22.2248 5.56128 22.3424L5.24155 21.1002C5.12576 21.0057 5.02067 20.8655 4.93489 20.6943L4.26984 20.8499ZM6.07482 20.4279C6.07369 20.7484 5.97874 21.0171 5.81493 21.1493L6.10413 22.2755C6.60132 22.0127 6.8535 21.2026 6.73988 20.2723L6.07482 20.4279ZM4.49206 18.1803C4.09659 18.585 3.94051 19.4221 4.12488 20.3254L4.76735 20.175C4.71862 19.8922 4.73821 19.6278 4.81229 19.4256L4.49206 18.1803ZM6.6361 19.7379C6.34285 18.6351 5.63415 17.8672 4.98972 17.9295L5.27876 19.0566C5.56176 19.0868 5.85272 19.4199 5.99267 19.8881L6.6361 19.7379Z" fill="#A9A8A8"/>
</g>
<g filter="url(#filter9_ii_38_6756)">
<path d="M1.94142 18.8136C1.95735 19.0202 2.02311 19.2043 2.11954 19.3662C2.30328 19.6745 2.74773 19.5077 2.80183 19.1529C2.83005 18.9678 2.86453 18.7277 2.90701 18.4129C3.14706 16.634 4.40625 15.949 5.17102 16.1163C6.04026 16.3064 6.81858 17.0247 7.28607 18.2253C7.66074 19.1876 7.88728 19.7338 8.16473 21.8987C8.17624 21.9885 8.21013 22.066 8.28588 22.1156C9.59559 22.9736 22.3044 29.4296 22.2616 29.2756C22.145 28.8556 22.1421 26.8687 22.5604 25.8999C23.3819 23.9969 24.6643 24.1784 25.3535 24.2837C26.0842 24.3953 27.782 25.2865 28.6635 27.0799C30.0616 29.9239 29.714 31.8556 30.0616 32.8719C30.1756 33.2053 35.7355 35.3109 37.7128 35.8069C42.6569 37.2804 49.64 32.2607 50.9572 31.2885C52.2743 30.3163 52.3815 27.4576 52.1879 24.2837C52.1908 22.4287 51.7937 21.4671 51.5097 21.171C50.1562 19.7604 46.9518 17.4759 44.8898 16.3637C44.8417 16.3377 44.7977 16.303 44.7607 16.2627C39.7404 10.7865 39.4181 10.1022 37.6862 9.2606C34.1623 7.54812 19.8141 1.72198 16.6593 1.72198C14.7952 1.72198 8.23243 3.8415 6.45975 5.19263C5.06107 6.25869 3.72053 8.61578 3.00256 10.1706C2.98264 10.2137 2.96983 10.2576 2.96376 10.3048C2.82244 11.4022 2.55253 14.5442 2.26899 14.8517C1.90674 15.2446 1.89323 18.1886 1.94142 18.8136Z" fill="url(#paint4_linear_38_6756)"/>
</g>
<mask id="mask0_38_6756" style="mask-type:alpha" maskUnits="userSpaceOnUse" x="1" y="1" width="52" height="36">
<path d="M1.94113 18.8136C1.95706 19.0202 2.02282 19.2043 2.11925 19.3661C2.30298 19.6745 2.72975 19.5046 2.78017 19.1492C2.80598 18.9672 2.83847 18.7325 2.87975 18.4265C3.1198 16.6477 4.40596 15.949 5.17072 16.1163C6.03996 16.3064 6.81829 17.0247 7.28578 18.2253C7.66044 19.1876 7.88698 19.7338 8.16444 21.8986C8.17595 21.9885 8.20984 22.066 8.28558 22.1156C9.59529 22.9736 22.3041 29.4296 22.2613 29.2756C22.1447 28.8555 22.1418 26.8686 22.5601 25.8999C23.3816 23.9969 24.664 24.1784 25.3532 24.2837C26.0839 24.3953 27.7817 25.2865 28.6632 27.0799C30.0613 29.9238 29.7137 31.8555 30.0613 32.8718C30.1753 33.2053 35.7352 35.3109 37.7125 35.8069C42.6566 37.2803 49.6397 32.2606 50.9569 31.2885C52.274 30.3163 52.3812 27.4576 52.1876 24.2837C52.1905 22.4287 51.7934 21.467 51.5094 21.171C50.1559 19.7603 46.9515 17.4759 44.8895 16.3637C44.8414 16.3377 44.7974 16.303 44.7604 16.2627C39.7391 10.7864 39.2758 10.089 36.7566 8.86476C33.2328 7.15227 19.8138 1.72196 16.659 1.72196C14.7949 1.72196 8.23214 3.84148 6.45946 5.19261C5.06078 6.25867 3.72023 8.61575 3.00226 10.1706C2.98234 10.2137 2.96953 10.2576 2.96346 10.3048C2.82215 11.4021 2.55223 14.5442 2.2687 14.8517C1.90645 15.2446 1.89294 18.1886 1.94113 18.8136Z" fill="url(#paint5_linear_38_6756)"/>
</mask>
<g mask="url(#mask0_38_6756)">
<g filter="url(#filter10_ddii_38_6756)">
<path d="M41.2656 27.8831C40.0628 27.9695 37.9541 28.1996 35.7703 27.1857C35.4351 27.03 34.8659 27.5402 35.0342 27.8693C35.3764 28.5384 35.7497 29.1687 36.1015 29.3523C36.9503 29.7953 39.3824 30.6277 41.7161 30.2122C41.7322 30.2093 41.7486 30.2071 41.7649 30.2087C42.0217 30.2328 42.644 30.7148 43.1975 30.9281C44.0816 31.1737 47.9519 29.0729 48.9275 28.5216C50.9871 27.3577 51.6908 26.5046 51.8005 26.2787C51.9718 25.9258 51.8564 25.1966 51.8905 24.969C51.9173 24.7903 52.0788 24.4178 52.1469 24.2661C52.1666 24.2221 52.1772 24.175 52.1765 24.1268C52.1732 23.8933 52.1522 23.1424 52.0214 22.5326C52.0163 22.5088 52.0137 22.4844 52.0134 22.4601C52.0032 21.2851 51.5057 20.4897 51.5058 21.1054C51.5058 21.9553 51.2875 22.9751 50.6765 23.4718C50.6566 23.4879 50.6372 23.5045 50.616 23.5188C50.0882 23.8761 43.0721 27.7533 41.2656 27.8831Z" fill="#2E2E2E"/>
</g>
<mask id="mask1_38_6756" style="mask-type:alpha" maskUnits="userSpaceOnUse" x="34" y="20" width="19" height="11">
<path d="M41.2656 27.8831C39.991 27.9747 37.6989 28.2276 35.3784 26.9904C35.1296 26.8577 34.7141 27.224 34.8383 27.4772C35.2302 28.276 35.6813 29.133 36.1015 29.3523C36.951 29.7956 39.3864 30.629 41.7219 30.2111C41.7342 30.2089 41.7465 30.2073 41.7589 30.2082C42.0119 30.2252 42.6397 30.7131 43.1975 30.9281C44.0816 31.1737 47.9519 29.0729 48.9275 28.5216C50.9871 27.3577 51.7809 26.4391 51.8905 26.2132C52.0619 25.8603 51.8564 25.1556 51.8905 24.9281C51.9178 24.7458 52.0852 24.3883 52.1508 24.2531C52.168 24.2176 52.1772 24.1795 52.1767 24.1401C52.1739 23.9222 52.1546 23.1475 52.0196 22.5241C52.0156 22.5059 52.0136 22.4873 52.0135 22.4688C52.0057 21.289 51.5057 20.4882 51.5058 21.1054C51.5058 21.9585 51.2858 22.9829 50.6694 23.4775C50.6542 23.4897 50.6428 23.5 50.6269 23.5113C50.1946 23.8173 43.0857 27.7523 41.2656 27.8831Z" fill="#211F1F"/>
</mask>
<g mask="url(#mask1_38_6756)">
<g filter="url(#filter11_d_38_6756)">
<path d="M51.4169 21.4472C51.4169 21.4472 52.0207 22.1807 51.6478 22.98C51.5357 23.2203 51.2231 23.4974 50.9732 23.3158C50.7872 23.1806 50.2781 23.1165 50.2781 23.1165L51.4169 21.4472Z" fill="#FAED47"/>
<path d="M51.4151 21.6826C51.4577 21.7548 51.5076 21.8489 51.5484 21.9598C51.633 22.1896 51.6819 22.4819 51.5812 22.7907L51.5283 22.9242C51.4819 23.0237 51.3922 23.1321 51.2931 23.1938C51.2203 23.239 51.1572 23.2519 51.1027 23.2353L51.0503 23.2088C50.9877 23.1635 50.906 23.1291 50.8282 23.1027C50.7481 23.0756 50.6618 23.054 50.5838 23.0369C50.5557 23.0308 50.5281 23.026 50.5022 23.021L51.4151 21.6826Z" stroke="white" stroke-opacity="0.9" stroke-width="0.263708"/>
</g>
<g filter="url(#filter12_d_38_6756)">
<path d="M41.6234 27.3794C41.6234 27.3794 42.2738 28.8123 40.1908 29.0917C39.5646 29.1757 38.4731 29.0845 37.7577 28.5143C37.3645 28.2008 36.8216 27.3071 36.8216 27.3071L41.6234 27.3794Z" fill="#FAED47"/>
<path d="M41.563 27.6339C41.5889 27.7604 41.6028 27.9272 41.5603 28.0985C41.5184 28.2671 41.4207 28.4458 41.2145 28.6003C41.0321 28.7369 40.7593 28.8582 40.3551 28.932L40.1729 28.9615C39.8741 29.0016 39.4591 28.9998 39.0326 28.9189C38.6585 28.848 38.2825 28.7171 37.9695 28.5061L37.8396 28.4112C37.6596 28.2677 37.4358 27.9805 37.2505 27.7172C37.1795 27.6164 37.1169 27.5205 37.0656 27.442L41.5303 27.5094C41.5408 27.5424 41.5529 27.5846 41.563 27.6339Z" stroke="white" stroke-opacity="0.9" stroke-width="0.263708"/>
</g>
<g filter="url(#filter13_ddii_38_6756)">
<path d="M41.2658 27.8831C40.063 27.9695 37.9543 28.1996 35.7705 27.1857C35.4353 27.03 34.8661 27.5402 35.0344 27.8693C35.3766 28.5384 35.75 29.1687 36.1018 29.3523C36.9505 29.7953 39.3826 30.6277 41.7163 30.2122C41.7325 30.2093 41.7488 30.2071 41.7651 30.2087C42.0219 30.2328 42.6442 30.7148 43.1977 30.9281C44.0818 31.1737 47.9521 29.0729 48.9277 28.5216C50.9873 27.3577 51.691 26.5046 51.8007 26.2787C51.972 25.9258 51.8567 25.1966 51.8908 24.969C51.9175 24.7903 52.079 24.4178 52.1471 24.2661C52.1668 24.2221 52.1774 24.175 52.1767 24.1268C52.1734 23.8933 52.1524 23.1424 52.0216 22.5326C52.0165 22.5088 52.0139 22.4844 52.0137 22.4601C52.0034 21.2851 51.5059 20.4897 51.506 21.1054C51.506 21.9553 51.2877 22.9751 50.6767 23.4718C50.6569 23.4879 50.6374 23.5045 50.6162 23.5188C50.0885 23.8761 43.0723 27.7533 41.2658 27.8831Z" fill="#ABB7C2"/>
</g>
<mask id="mask2_38_6756" style="mask-type:alpha" maskUnits="userSpaceOnUse" x="34" y="20" width="19" height="11">
<path d="M41.2658 27.8831C39.9912 27.9747 37.6991 28.2276 35.3786 26.9904C35.1298 26.8577 34.7143 27.224 34.8385 27.4772C35.2304 28.276 35.6815 29.133 36.1018 29.3523C36.9512 29.7956 39.3866 30.629 41.7221 30.2111C41.7344 30.2089 41.7467 30.2073 41.7591 30.2082C42.0121 30.2252 42.6399 30.7131 43.1977 30.9281C44.0818 31.1737 47.9521 29.0729 48.9277 28.5216C50.9873 27.3577 51.7811 26.4391 51.8908 26.2132C52.0621 25.8603 51.8567 25.1556 51.8908 24.9281C51.9181 24.7458 52.0854 24.3883 52.151 24.2531C52.1682 24.2176 52.1774 24.1795 52.1769 24.1401C52.1741 23.9222 52.1548 23.1475 52.0198 22.5241C52.0159 22.5059 52.0138 22.4873 52.0137 22.4688C52.0059 21.289 51.5059 20.4882 51.506 21.1054C51.506 21.9585 51.286 22.9829 50.6696 23.4775C50.6544 23.4897 50.643 23.5 50.6271 23.5113C50.1948 23.8173 43.0859 27.7523 41.2658 27.8831Z" fill="#211F1F"/>
</mask>
<g mask="url(#mask2_38_6756)">
<g filter="url(#filter14_ddii_38_6756)">
<path d="M41.2658 27.8831C40.0629 27.9695 37.9538 28.1997 35.7698 27.1853C35.4347 27.0297 34.8658 27.5397 35.034 27.8686C35.3763 28.538 35.7498 29.1687 36.1018 29.3523C36.9505 29.7953 39.3826 30.6277 41.7163 30.2122C41.7325 30.2093 41.7488 30.2071 41.7651 30.2087C42.0219 30.2328 42.6442 30.7148 43.1977 30.9281C44.0818 31.1737 47.9521 29.0729 48.9277 28.5216C50.9873 27.3577 51.6501 26.5292 51.7598 26.3033C51.9311 25.9504 51.8157 25.1638 51.8498 24.9363C51.8757 24.7633 52.0515 24.4276 52.1343 24.2765C52.1622 24.2257 52.1774 24.1694 52.1765 24.1115C52.1725 23.862 52.1497 23.1296 52.0216 22.5326C52.0165 22.5088 52.0139 22.4844 52.0137 22.4601C52.0034 21.2851 51.5059 20.4897 51.506 21.1054C51.506 21.9553 51.2877 22.9751 50.6767 23.4718C50.6569 23.4879 50.6374 23.5044 50.6163 23.5188C50.0886 23.876 43.0723 27.7533 41.2658 27.8831Z" fill="#DADADA"/>
</g>
<g filter="url(#filter15_d_38_6756)">
<path d="M51.4153 21.6826C51.4579 21.7548 51.5078 21.8489 51.5486 21.9598C51.6332 22.1896 51.6821 22.4819 51.5814 22.7907L51.5285 22.9242C51.4821 23.0237 51.3924 23.1321 51.2933 23.1938C51.2205 23.239 51.1574 23.2519 51.1029 23.2353L51.0505 23.2088C50.9879 23.1635 50.9063 23.1291 50.8284 23.1027C50.7483 23.0756 50.662 23.054 50.584 23.0369C50.5559 23.0308 50.5284 23.026 50.5024 23.021L51.4153 21.6826Z" stroke="white" stroke-opacity="0.9" stroke-width="0.263708"/>
</g>
<g filter="url(#filter16_d_38_6756)">
<path d="M41.5632 27.6339C41.5891 27.7604 41.603 27.9272 41.5605 28.0985C41.5186 28.2671 41.4209 28.4458 41.2148 28.6003C41.0323 28.7369 40.7595 28.8582 40.3553 28.932L40.1731 28.9615C39.8743 29.0016 39.4593 28.9998 39.0328 28.9189C38.6587 28.848 38.2828 28.7171 37.9697 28.5061L37.8398 28.4112C37.6598 28.2677 37.4361 27.9805 37.2507 27.7172C37.1797 27.6164 37.1171 27.5205 37.0658 27.442L41.5305 27.5094C41.541 27.5424 41.5531 27.5846 41.5632 27.6339Z" stroke="white" stroke-opacity="0.9" stroke-width="0.263708"/>
</g>
</g>
</g>
<g filter="url(#filter17_ddi_38_6756)">
<path d="M30.8882 22.1335C29.6882 21.637 28.2814 17.4734 26.7961 14.8059C26.6378 14.5218 26.7585 14.1581 27.0605 14.0372L37.9126 9.69069C38.0429 9.63847 38.186 9.6443 38.3 9.72635C38.7353 10.0398 40.0354 11.1408 43.1397 14.8026C44.1426 15.9855 44.2904 16.1325 44.7922 16.6822C44.8668 16.7639 44.5994 17.1524 44.3383 17.3676C43.2641 18.2528 33.8411 23.3554 30.8882 22.1335Z" fill="url(#paint6_linear_38_6756)"/>
</g>
<g filter="url(#filter18_f_38_6756)">
<path d="M35.1616 26.1885C32.4511 25.0285 30.9016 23.5155 29.2479 22.1398C34.086 23.4141 44.2168 26.2166 44.0657 26.4238C43.8769 26.6828 43.1653 27.005 40.7753 27.2398C38.4223 27.471 35.472 26.3213 35.1616 26.1885Z" fill="url(#paint7_linear_38_6756)" fill-opacity="0.21"/>
</g>
<path d="M39.9928 19.8016L31.1469 12.324C30.3243 12.6678 27.7249 13.7469 27.3435 13.8901C26.8494 14.0756 26.6379 14.2343 26.6379 14.2343C26.5433 14.3289 26.4751 14.2347 26.6379 14.5268C26.9305 15.0517 27.3498 15.9205 27.9545 17.203C29.0215 19.4661 30.0362 21.9299 30.9576 22.2024C32.1795 22.5638 34.1615 22.0784 35.7419 21.5571C37.1546 21.091 38.945 20.2273 39.9928 19.8016Z" fill="#C4C4C4" fill-opacity="0.2"/>
<g filter="url(#filter19_di_38_6756)">
<path d="M5.72574 7.31293C6.45981 6.07443 6.5349 5.62578 6.06624 5.55273C5.44462 5.89205 3.61675 8.41953 3.30602 9.57179C3.24704 9.79053 3.71305 9.71641 4.22364 9.35589C4.73423 8.99537 4.80815 8.86106 5.72574 7.31293Z" fill="url(#paint8_linear_38_6756)"/>
</g>
<g filter="url(#filter20_f_38_6756)">
<path d="M4.97405 14.0036L4.83884 13.9348C4.88436 13.9566 4.92943 13.9795 4.97405 14.0036L23.7139 23.5328C23.8622 23.6083 23.8572 23.8311 23.714 23.9158C23.0883 24.286 22.1238 25.1193 22.0075 26.6821C21.9968 26.8268 21.843 26.9219 21.7135 26.8565L8.42189 20.1471C8.35351 20.1126 8.31214 20.0434 8.30691 19.967C8.23877 18.9711 7.1316 15.1671 4.97405 14.0036Z" fill="url(#paint9_linear_38_6756)" fill-opacity="0.12"/>
</g>
<path d="M11.585 12.9828C11.6533 13.0168 11.7216 13.0508 11.8103 13.0778C12.677 13.3215 13.6304 12.6374 13.935 11.5455C14.2395 10.4536 13.7939 9.36329 12.9272 9.11962C12.4972 8.99096 12.0404 9.08743 11.6319 9.39522C11.2369 9.67571 10.9446 10.1265 10.7888 10.6452C10.5182 11.6347 10.8613 12.6229 11.585 12.9828Z" fill="white"/>
<path d="M9.66677 12.1141C9.73388 11.6025 9.63727 11.0775 9.39767 10.6688C9.14443 10.2533 8.78237 9.98808 8.35256 9.92762C7.48614 9.82036 6.66259 10.6201 6.52853 11.7117C6.46143 12.2233 6.55804 12.7483 6.79763 13.157C6.96194 13.4431 7.18064 13.6541 7.42644 13.7763C7.54934 13.8374 7.69947 13.878 7.84274 13.8982C8.69551 13.9987 9.51906 13.1989 9.66677 12.1141Z" fill="white"/>
<path d="M14.9925 14.6603C15.054 14.7079 15.1223 14.7418 15.2042 14.7826C15.9143 15.1357 16.923 14.8198 17.5351 14.0001C17.8684 13.5697 18.0378 13.0578 18.0231 12.5735C18.0152 12.0757 17.8165 11.6532 17.4612 11.3744C16.7439 10.8303 15.6056 11.1328 14.9187 12.0346C14.2454 12.9431 14.2752 14.1162 14.9925 14.6603Z" fill="white"/>
<path d="M19.5703 15.5234C18.9552 14.9109 17.8233 15.0293 17.0474 15.8017C16.2715 16.5741 16.1239 17.6929 16.7459 18.3259C16.8484 18.428 16.9577 18.5164 17.0943 18.5843C17.3401 18.7065 17.6403 18.7536 17.9676 18.712C18.4381 18.6564 18.8945 18.4236 19.2825 18.0544C20.0447 17.2753 20.1855 16.136 19.5703 15.5234Z" fill="white"/>
<path d="M14.6129 16.0729C13.9688 14.6625 12.412 13.8883 10.885 14.219C9.05116 14.6185 6.78847 15.4009 6.0822 16.821C4.37765 20.2485 13.7316 24.9004 15.4361 21.4729C16.1561 20.0595 15.4009 17.7763 14.6129 16.0729Z" fill="white"/>
<path d="M19.5652 22.4407C19.5734 22.4407 19.5817 22.4407 19.5916 22.4391C19.6871 22.421 19.7464 22.3089 19.7234 22.1886C19.7003 22.0684 19.6047 21.9843 19.5092 22.0025C19.4614 22.0107 19.4218 22.042 19.3971 22.0914C19.3724 22.1376 19.3658 22.1952 19.3757 22.2529C19.3971 22.3616 19.4779 22.4407 19.5652 22.4407Z" fill="white"/>
<path d="M19.3379 22.4488C19.3197 22.396 19.2851 22.3499 19.2423 22.3219C19.1978 22.2939 19.15 22.2856 19.1055 22.3005C19.0166 22.3318 18.9754 22.4488 19.0149 22.5608C19.0331 22.6135 19.0677 22.6597 19.1105 22.6877C19.1401 22.7074 19.1715 22.7173 19.2011 22.7173C19.2159 22.7173 19.2324 22.714 19.2472 22.7091C19.3346 22.6778 19.3758 22.5608 19.3379 22.4488Z" fill="white"/>
<path d="M19.9755 22.4391C19.9837 22.4407 19.992 22.4407 20.0018 22.4407C20.0875 22.4407 20.1699 22.3616 20.1897 22.2529C20.2012 22.1952 20.193 22.1376 20.1683 22.0914C20.1435 22.0437 20.104 22.0123 20.0562 22.0025C19.9606 21.9843 19.8651 22.0684 19.842 22.1886C19.8206 22.3089 19.8799 22.421 19.9755 22.4391Z" fill="white"/>
<path d="M20.4599 22.3023C20.3709 22.2726 20.2671 22.3385 20.2292 22.4506C20.1913 22.5626 20.2308 22.6779 20.3215 22.7092C20.3363 22.7142 20.3511 22.7175 20.3676 22.7175C20.3973 22.7175 20.4286 22.7076 20.4582 22.6878C20.5011 22.6598 20.534 22.6153 20.5538 22.5609C20.59 22.4489 20.5488 22.3319 20.4599 22.3023Z" fill="white"/>
<path d="M20.0068 22.594C19.8766 22.4885 19.6888 22.4885 19.5569 22.594C19.3988 22.7208 19.2175 22.9054 19.2175 23.0767C19.2175 23.4903 20.3462 23.4903 20.3462 23.0767C20.3478 22.9054 20.1649 22.7208 20.0068 22.594Z" fill="white"/>
<path d="M19.718 27.6199C19.7263 27.6199 19.7345 27.6199 19.7444 27.6183C19.8399 27.6002 19.8993 27.4881 19.8762 27.3678C19.8531 27.2476 19.7576 27.1635 19.662 27.1817C19.6142 27.1899 19.5747 27.2212 19.55 27.2706C19.5252 27.3168 19.5187 27.3744 19.5285 27.4321C19.55 27.5408 19.6307 27.6199 19.718 27.6199Z" fill="white"/>
<path d="M19.4907 27.628C19.4726 27.5752 19.438 27.5291 19.3951 27.5011C19.3506 27.4731 19.3029 27.4648 19.2584 27.4797C19.1694 27.511 19.1282 27.628 19.1678 27.74C19.1859 27.7927 19.2205 27.8389 19.2633 27.8669C19.293 27.8866 19.3243 27.8965 19.3539 27.8965C19.3688 27.8965 19.3852 27.8932 19.4001 27.8883C19.4874 27.857 19.5286 27.74 19.4907 27.628Z" fill="white"/>
<path d="M20.1283 27.6183C20.1365 27.6199 20.1448 27.6199 20.1547 27.6199C20.2403 27.6199 20.3227 27.5408 20.3425 27.4321C20.354 27.3744 20.3458 27.3168 20.3211 27.2706C20.2964 27.2229 20.2568 27.1915 20.209 27.1817C20.1135 27.1635 20.0179 27.2476 19.9949 27.3678C19.9734 27.4881 20.0327 27.6002 20.1283 27.6183Z" fill="white"/>
<path d="M20.6127 27.4815C20.5237 27.4518 20.4199 27.5177 20.382 27.6298C20.3441 27.7418 20.3837 27.8571 20.4743 27.8884C20.4891 27.8934 20.504 27.8967 20.5204 27.8967C20.5501 27.8967 20.5814 27.8868 20.611 27.867C20.6539 27.839 20.6868 27.7945 20.7066 27.7401C20.7429 27.6281 20.7017 27.5111 20.6127 27.4815Z" fill="white"/>
<path d="M20.1596 27.7732C20.0294 27.6677 19.8416 27.6677 19.7098 27.7732C19.5516 27.9 19.3704 28.0846 19.3704 28.2559C19.3704 28.6695 20.499 28.6695 20.499 28.2559C20.5006 28.0846 20.3178 27.9 20.1596 27.7732Z" fill="white"/>
<path d="M17.7907 24.5721C17.7987 24.5742 17.8067 24.5764 17.8166 24.5773C17.9136 24.5845 17.9999 24.4917 18.0088 24.3695C18.0176 24.2474 17.9471 24.1415 17.8501 24.1342C17.8018 24.1298 17.7555 24.1498 17.7188 24.1912C17.683 24.2294 17.6617 24.2834 17.6563 24.3416C17.6489 24.4522 17.7064 24.5495 17.7907 24.5721Z" fill="white"/>
<path d="M17.5691 24.5209C17.5652 24.4653 17.5437 24.4118 17.5096 24.3737C17.4739 24.3351 17.4299 24.3148 17.3831 24.3176C17.289 24.3248 17.2189 24.4271 17.2281 24.5456C17.232 24.6012 17.2535 24.6547 17.2876 24.6929C17.3111 24.7196 17.3388 24.7373 17.3675 24.745C17.3818 24.7488 17.3986 24.7499 17.4142 24.7489C17.5066 24.7413 17.5767 24.639 17.5691 24.5209Z" fill="white"/>
<path d="M18.1875 24.6766C18.195 24.6803 18.203 24.6825 18.2125 24.685C18.2953 24.7072 18.3953 24.6521 18.4426 24.5522C18.4686 24.4995 18.4756 24.4416 18.4637 24.3907C18.4522 24.3381 18.4221 24.2977 18.3785 24.2757C18.2909 24.2335 18.1768 24.2899 18.1234 24.4001C18.0716 24.5108 18.0999 24.6344 18.1875 24.6766Z" fill="white"/>
<path d="M18.6907 24.6699C18.6125 24.6182 18.4952 24.655 18.4295 24.7534C18.3639 24.8518 18.3723 24.9735 18.4517 25.0272C18.4648 25.0358 18.4782 25.0428 18.4942 25.0471C18.5228 25.0547 18.5556 25.0533 18.5894 25.0419C18.638 25.0259 18.6813 24.9915 18.7145 24.944C18.7785 24.8452 18.769 24.7216 18.6907 24.6699Z" fill="white"/>
<path d="M18.1776 24.8344C18.0792 24.6988 17.8978 24.6502 17.7431 24.718C17.5575 24.7996 17.3347 24.9309 17.2903 25.0964C17.1833 25.4959 18.2735 25.788 18.3805 25.3885C18.4265 25.2234 18.2976 24.9979 18.1776 24.8344Z" fill="white"/>
<g filter="url(#filter21_di_38_6756)">
<path d="M22.8081 21.9034C22.8081 21.8279 22.7651 21.759 22.6972 21.726L21.4866 21.1372C21.3562 21.0737 21.2046 21.1687 21.2046 21.3139L21.2046 21.3996C21.2046 21.4752 21.2478 21.5442 21.3158 21.5771L22.5264 22.1636C22.6568 22.2267 22.8081 22.1317 22.8081 21.9866L22.8081 21.9034Z" fill="#2E2E2E"/>
</g>
</g>
<defs>
<filter id="filter0_f_38_6756" x="0.527532" y="13.8604" width="52.1591" height="25.7418" filterUnits="userSpaceOnUse" color-interpolation-filters="sRGB">
<feFlood flood-opacity="0" result="BackgroundImageFix"/>
<feBlend mode="normal" in="SourceGraphic" in2="BackgroundImageFix" result="shape"/>
<feGaussianBlur stdDeviation="0.386075" result="effect1_foregroundBlur_38_6756"/>
</filter>
<filter id="filter1_i_38_6756" x="22.8886" y="25.5583" width="5.69638" height="7.9856" filterUnits="userSpaceOnUse" color-interpolation-filters="sRGB">
<feFlood flood-opacity="0" result="BackgroundImageFix"/>
<feBlend mode="normal" in="SourceGraphic" in2="BackgroundImageFix" result="shape"/>
<feColorMatrix in="SourceAlpha" type="matrix" values="0 0 0 0 0 0 0 0 0 0 0 0 0 0 0 0 0 0 127 0" result="hardAlpha"/>
<feMorphology radius="0.0905896" operator="erode" in="SourceAlpha" result="effect1_innerShadow_38_6756"/>
<feOffset/>
<feGaussianBlur stdDeviation="0.0452948"/>
<feComposite in2="hardAlpha" operator="arithmetic" k2="-1" k3="1"/>
<feColorMatrix type="matrix" values="0 0 0 0 0 0 0 0 0 0 0 0 0 0 0 0 0 0 0.25 0"/>
<feBlend mode="normal" in2="shape" result="effect1_innerShadow_38_6756"/>
</filter>
<filter id="filter2_di_38_6756" x="23.1024" y="26.2158" width="5.05565" height="6.83431" filterUnits="userSpaceOnUse" color-interpolation-filters="sRGB">
<feFlood flood-opacity="0" result="BackgroundImageFix"/>
<feColorMatrix in="SourceAlpha" type="matrix" values="0 0 0 0 0 0 0 0 0 0 0 0 0 0 0 0 0 0 127 0" result="hardAlpha"/>
<feOffset dy="0.0362358"/>
<feGaussianBlur stdDeviation="0.0271769"/>
<feColorMatrix type="matrix" values="0 0 0 0 1 0 0 0 0 1 0 0 0 0 1 0 0 0 0.41 0"/>
<feBlend mode="normal" in2="BackgroundImageFix" result="effect1_dropShadow_38_6756"/>
<feBlend mode="normal" in="SourceGraphic" in2="effect1_dropShadow_38_6756" result="shape"/>
<feColorMatrix in="SourceAlpha" type="matrix" values="0 0 0 0 0 0 0 0 0 0 0 0 0 0 0 0 0 0 127 0" result="hardAlpha"/>
<feOffset dx="-0.271769" dy="0.181179"/>
<feGaussianBlur stdDeviation="0.135884"/>
<feComposite in2="hardAlpha" operator="arithmetic" k2="-1" k3="1"/>
<feColorMatrix type="matrix" values="0 0 0 0 0 0 0 0 0 0 0 0 0 0 0 0 0 0 0.25 0"/>
<feBlend mode="normal" in2="shape" result="effect2_innerShadow_38_6756"/>
</filter>
<filter id="filter3_i_38_6756" x="23.2258" y="25.604" width="5.08463" height="7.8938" filterUnits="userSpaceOnUse" color-interpolation-filters="sRGB">
<feFlood flood-opacity="0" result="BackgroundImageFix"/>
<feBlend mode="normal" in="SourceGraphic" in2="BackgroundImageFix" result="shape"/>
<feColorMatrix in="SourceAlpha" type="matrix" values="0 0 0 0 0 0 0 0 0 0 0 0 0 0 0 0 0 0 127 0" result="hardAlpha"/>
<feMorphology radius="0.120712" operator="erode" in="SourceAlpha" result="effect1_innerShadow_38_6756"/>
<feOffset/>
<feGaussianBlur stdDeviation="0.0603558"/>
<feComposite in2="hardAlpha" operator="arithmetic" k2="-1" k3="1"/>
<feColorMatrix type="matrix" values="0 0 0 0 0 0 0 0 0 0 0 0 0 0 0 0 0 0 0.25 0"/>
<feBlend mode="normal" in2="shape" result="effect1_innerShadow_38_6756"/>
</filter>
<filter id="filter4_di_38_6756" x="23.7308" y="26.6159" width="3.96643" height="5.95452" filterUnits="userSpaceOnUse" color-interpolation-filters="sRGB">
<feFlood flood-opacity="0" result="BackgroundImageFix"/>
<feColorMatrix in="SourceAlpha" type="matrix" values="0 0 0 0 0 0 0 0 0 0 0 0 0 0 0 0 0 0 127 0" result="hardAlpha"/>
<feOffset dy="0.0411677"/>
<feGaussianBlur stdDeviation="0.0257298"/>
<feColorMatrix type="matrix" values="0 0 0 0 1 0 0 0 0 1 0 0 0 0 1 0 0 0 0.59 0"/>
<feBlend mode="normal" in2="BackgroundImageFix" result="effect1_dropShadow_38_6756"/>
<feBlend mode="normal" in="SourceGraphic" in2="effect1_dropShadow_38_6756" result="shape"/>
<feColorMatrix in="SourceAlpha" type="matrix" values="0 0 0 0 0 0 0 0 0 0 0 0 0 0 0 0 0 0 127 0" result="hardAlpha"/>
<feOffset dx="-0.154379" dy="0.102919"/>
<feGaussianBlur stdDeviation="0.0771894"/>
<feComposite in2="hardAlpha" operator="arithmetic" k2="-1" k3="1"/>
<feColorMatrix type="matrix" values="0 0 0 0 0 0 0 0 0 0 0 0 0 0 0 0 0 0 0.25 0"/>
<feBlend mode="normal" in2="shape" result="effect2_innerShadow_38_6756"/>
</filter>
<filter id="filter5_i_38_6756" x="3.40787" y="17.0276" width="4.26743" height="5.98218" filterUnits="userSpaceOnUse" color-interpolation-filters="sRGB">
<feFlood flood-opacity="0" result="BackgroundImageFix"/>
<feBlend mode="normal" in="SourceGraphic" in2="BackgroundImageFix" result="shape"/>
<feColorMatrix in="SourceAlpha" type="matrix" values="0 0 0 0 0 0 0 0 0 0 0 0 0 0 0 0 0 0 127 0" result="hardAlpha"/>
<feMorphology radius="0.0905896" operator="erode" in="SourceAlpha" result="effect1_innerShadow_38_6756"/>
<feOffset/>
<feGaussianBlur stdDeviation="0.0452948"/>
<feComposite in2="hardAlpha" operator="arithmetic" k2="-1" k3="1"/>
<feColorMatrix type="matrix" values="0 0 0 0 0 0 0 0 0 0 0 0 0 0 0 0 0 0 0.25 0"/>
<feBlend mode="normal" in2="shape" result="effect1_innerShadow_38_6756"/>
</filter>
<filter id="filter6_di_38_6756" x="3.49773" y="17.5158" width="3.86961" height="5.16902" filterUnits="userSpaceOnUse" color-interpolation-filters="sRGB">
<feFlood flood-opacity="0" result="BackgroundImageFix"/>
<feColorMatrix in="SourceAlpha" type="matrix" values="0 0 0 0 0 0 0 0 0 0 0 0 0 0 0 0 0 0 127 0" result="hardAlpha"/>
<feOffset dy="0.0362358"/>
<feGaussianBlur stdDeviation="0.0271769"/>
<feColorMatrix type="matrix" values="0 0 0 0 1 0 0 0 0 1 0 0 0 0 1 0 0 0 0.41 0"/>
<feBlend mode="normal" in2="BackgroundImageFix" result="effect1_dropShadow_38_6756"/>
<feBlend mode="normal" in="SourceGraphic" in2="effect1_dropShadow_38_6756" result="shape"/>
<feColorMatrix in="SourceAlpha" type="matrix" values="0 0 0 0 0 0 0 0 0 0 0 0 0 0 0 0 0 0 127 0" result="hardAlpha"/>
<feOffset dx="-0.271769" dy="0.181179"/>
<feGaussianBlur stdDeviation="0.135884"/>
<feComposite in2="hardAlpha" operator="arithmetic" k2="-1" k3="1"/>
<feColorMatrix type="matrix" values="0 0 0 0 0 0 0 0 0 0 0 0 0 0 0 0 0 0 0.25 0"/>
<feBlend mode="normal" in2="shape" result="effect2_innerShadow_38_6756"/>
</filter>
<filter id="filter7_i_38_6756" x="3.56723" y="17.1477" width="3.67535" height="5.99756" filterUnits="userSpaceOnUse" color-interpolation-filters="sRGB">
<feFlood flood-opacity="0" result="BackgroundImageFix"/>
<feBlend mode="normal" in="SourceGraphic" in2="BackgroundImageFix" result="shape"/>
<feColorMatrix in="SourceAlpha" type="matrix" values="0 0 0 0 0 0 0 0 0 0 0 0 0 0 0 0 0 0 127 0" result="hardAlpha"/>
<feMorphology radius="0.120712" operator="erode" in="SourceAlpha" result="effect1_innerShadow_38_6756"/>
<feOffset/>
<feGaussianBlur stdDeviation="0.0603558"/>
<feComposite in2="hardAlpha" operator="arithmetic" k2="-1" k3="1"/>
<feColorMatrix type="matrix" values="0 0 0 0 0 0 0 0 0 0 0 0 0 0 0 0 0 0 0.25 0"/>
<feBlend mode="normal" in2="shape" result="effect1_innerShadow_38_6756"/>
</filter>
<filter id="filter8_di_38_6756" x="3.89347" y="17.9157" width="2.9248" height="4.52972" filterUnits="userSpaceOnUse" color-interpolation-filters="sRGB">
<feFlood flood-opacity="0" result="BackgroundImageFix"/>
<feColorMatrix in="SourceAlpha" type="matrix" values="0 0 0 0 0 0 0 0 0 0 0 0 0 0 0 0 0 0 127 0" result="hardAlpha"/>
<feOffset dy="0.0411677"/>
<feGaussianBlur stdDeviation="0.0257298"/>
<feColorMatrix type="matrix" values="0 0 0 0 1 0 0 0 0 1 0 0 0 0 1 0 0 0 0.59 0"/>
<feBlend mode="normal" in2="BackgroundImageFix" result="effect1_dropShadow_38_6756"/>
<feBlend mode="normal" in="SourceGraphic" in2="effect1_dropShadow_38_6756" result="shape"/>
<feColorMatrix in="SourceAlpha" type="matrix" values="0 0 0 0 0 0 0 0 0 0 0 0 0 0 0 0 0 0 127 0" result="hardAlpha"/>
<feOffset dx="-0.154379" dy="0.102919"/>
<feGaussianBlur stdDeviation="0.0771894"/>
<feComposite in2="hardAlpha" operator="arithmetic" k2="-1" k3="1"/>
<feColorMatrix type="matrix" values="0 0 0 0 0 0 0 0 0 0 0 0 0 0 0 0 0 0 0.25 0"/>
<feBlend mode="normal" in2="shape" result="effect2_innerShadow_38_6756"/>
</filter>
<filter id="filter9_ii_38_6756" x="1.92133" y="0.756231" width="51.0657" height="35.3195" filterUnits="userSpaceOnUse" color-interpolation-filters="sRGB">
<feFlood flood-opacity="0" result="BackgroundImageFix"/>
<feBlend mode="normal" in="SourceGraphic" in2="BackgroundImageFix" result="shape"/>
<feColorMatrix in="SourceAlpha" type="matrix" values="0 0 0 0 0 0 0 0 0 0 0 0 0 0 0 0 0 0 127 0" result="hardAlpha"/>
<feOffset dx="0.724269" dy="-0.965693"/>
<feGaussianBlur stdDeviation="2.89708"/>
<feComposite in2="hardAlpha" operator="arithmetic" k2="-1" k3="1"/>
<feColorMatrix type="matrix" values="0 0 0 0 0 0 0 0 0 0 0 0 0 0 0 0 0 0 0.07 0"/>
<feBlend mode="normal" in2="shape" result="effect1_innerShadow_38_6756"/>
<feColorMatrix in="SourceAlpha" type="matrix" values="0 0 0 0 0 0 0 0 0 0 0 0 0 0 0 0 0 0 127 0" result="hardAlpha"/>
<feOffset dy="-0.120712"/>
<feGaussianBlur stdDeviation="0.241423"/>
<feComposite in2="hardAlpha" operator="arithmetic" k2="-1" k3="1"/>
<feColorMatrix type="matrix" values="0 0 0 0 0 0 0 0 0 0 0 0 0 0 0 0 0 0 0.09 0"/>
<feBlend mode="normal" in2="effect1_innerShadow_38_6756" result="effect2_innerShadow_38_6756"/>
</filter>
<filter id="filter10_ddii_38_6756" x="34.8934" y="20.7262" width="17.3934" height="10.9821" filterUnits="userSpaceOnUse" color-interpolation-filters="sRGB">
<feFlood flood-opacity="0" result="BackgroundImageFix"/>
<feColorMatrix in="SourceAlpha" type="matrix" values="0 0 0 0 0 0 0 0 0 0 0 0 0 0 0 0 0 0 127 0" result="hardAlpha"/>
<feOffset dy="0.082721"/>
<feGaussianBlur stdDeviation="0.0551473"/>
<feColorMatrix type="matrix" values="0 0 0 0 0 0 0 0 0 0 0 0 0 0 0 0 0 0 0.57 0"/>
<feBlend mode="normal" in2="BackgroundImageFix" result="effect1_dropShadow_38_6756"/>
<feColorMatrix in="SourceAlpha" type="matrix" values="0 0 0 0 0 0 0 0 0 0 0 0 0 0 0 0 0 0 127 0" result="hardAlpha"/>
<feOffset dy="-0.0551473"/>
<feGaussianBlur stdDeviation="0.0551473"/>
<feColorMatrix type="matrix" values="0 0 0 0 0 0 0 0 0 0 0 0 0 0 0 0 0 0 1 0"/>
<feBlend mode="normal" in2="effect1_dropShadow_38_6756" result="effect2_dropShadow_38_6756"/>
<feBlend mode="normal" in="SourceGraphic" in2="effect2_dropShadow_38_6756" result="shape"/>
<feColorMatrix in="SourceAlpha" type="matrix" values="0 0 0 0 0 0 0 0 0 0 0 0 0 0 0 0 0 0 127 0" result="hardAlpha"/>
<feOffset dy="0.76027"/>
<feGaussianBlur stdDeviation="0.774798"/>
<feComposite in2="hardAlpha" operator="arithmetic" k2="-1" k3="1"/>
<feColorMatrix type="matrix" values="0 0 0 0 0 0 0 0 0 0 0 0 0 0 0 0 0 0 1 0"/>
<feBlend mode="normal" in2="shape" result="effect3_innerShadow_38_6756"/>
<feColorMatrix in="SourceAlpha" type="matrix" values="0 0 0 0 0 0 0 0 0 0 0 0 0 0 0 0 0 0 127 0" result="hardAlpha"/>
<feOffset dy="-0.0828472"/>
<feGaussianBlur stdDeviation="0.0828472"/>
<feComposite in2="hardAlpha" operator="arithmetic" k2="-1" k3="1"/>
<feColorMatrix type="matrix" values="0 0 0 0 0 0 0 0 0 0 0 0 0 0 0 0 0 0 1 0"/>
<feBlend mode="normal" in2="effect3_innerShadow_38_6756" result="effect4_innerShadow_38_6756"/>
</filter>
<filter id="filter11_d_38_6756" x="50.2568" y="21.4473" width="1.70962" height="2.14539" filterUnits="userSpaceOnUse" color-interpolation-filters="sRGB">
<feFlood flood-opacity="0" result="BackgroundImageFix"/>
<feColorMatrix in="SourceAlpha" type="matrix" values="0 0 0 0 0 0 0 0 0 0 0 0 0 0 0 0 0 0 127 0" result="hardAlpha"/>
<feOffset dx="0.0879027" dy="0.109192"/>
<feGaussianBlur stdDeviation="0.0545959"/>
<feColorMatrix type="matrix" values="0 0 0 0 1 0 0 0 0 1 0 0 0 0 1 0 0 0 0.24 0"/>
<feBlend mode="normal" in2="BackgroundImageFix" result="effect1_dropShadow_38_6756"/>
<feBlend mode="normal" in="SourceGraphic" in2="effect1_dropShadow_38_6756" result="shape"/>
</filter>
<filter id="filter12_d_38_6756" x="36.8003" y="27.3071" width="5.11633" height="2.02991" filterUnits="userSpaceOnUse" color-interpolation-filters="sRGB">
<feFlood flood-opacity="0" result="BackgroundImageFix"/>
<feColorMatrix in="SourceAlpha" type="matrix" values="0 0 0 0 0 0 0 0 0 0 0 0 0 0 0 0 0 0 127 0" result="hardAlpha"/>
<feOffset dx="0.0879027" dy="0.109192"/>
<feGaussianBlur stdDeviation="0.0545959"/>
<feColorMatrix type="matrix" values="0 0 0 0 1 0 0 0 0 1 0 0 0 0 1 0 0 0 0.24 0"/>
<feBlend mode="normal" in2="BackgroundImageFix" result="effect1_dropShadow_38_6756"/>
<feBlend mode="normal" in="SourceGraphic" in2="effect1_dropShadow_38_6756" result="shape"/>
</filter>
<filter id="filter13_ddii_38_6756" x="34.8936" y="20.7262" width="17.3934" height="10.9821" filterUnits="userSpaceOnUse" color-interpolation-filters="sRGB">
<feFlood flood-opacity="0" result="BackgroundImageFix"/>
<feColorMatrix in="SourceAlpha" type="matrix" values="0 0 0 0 0 0 0 0 0 0 0 0 0 0 0 0 0 0 127 0" result="hardAlpha"/>
<feOffset dy="0.082721"/>
<feGaussianBlur stdDeviation="0.0551473"/>
<feColorMatrix type="matrix" values="0 0 0 0 0 0 0 0 0 0 0 0 0 0 0 0 0 0 0.57 0"/>
<feBlend mode="normal" in2="BackgroundImageFix" result="effect1_dropShadow_38_6756"/>
<feColorMatrix in="SourceAlpha" type="matrix" values="0 0 0 0 0 0 0 0 0 0 0 0 0 0 0 0 0 0 127 0" result="hardAlpha"/>
<feOffset dy="-0.0551473"/>
<feGaussianBlur stdDeviation="0.0551473"/>
<feColorMatrix type="matrix" values="0 0 0 0 0 0 0 0 0 0 0 0 0 0 0 0 0 0 1 0"/>
<feBlend mode="normal" in2="effect1_dropShadow_38_6756" result="effect2_dropShadow_38_6756"/>
<feBlend mode="normal" in="SourceGraphic" in2="effect2_dropShadow_38_6756" result="shape"/>
<feColorMatrix in="SourceAlpha" type="matrix" values="0 0 0 0 0 0 0 0 0 0 0 0 0 0 0 0 0 0 127 0" result="hardAlpha"/>
<feOffset dy="0.76027"/>
<feGaussianBlur stdDeviation="0.774798"/>
<feComposite in2="hardAlpha" operator="arithmetic" k2="-1" k3="1"/>
<feColorMatrix type="matrix" values="0 0 0 0 0 0 0 0 0 0 0 0 0 0 0 0 0 0 1 0"/>
<feBlend mode="normal" in2="shape" result="effect3_innerShadow_38_6756"/>
<feColorMatrix in="SourceAlpha" type="matrix" values="0 0 0 0 0 0 0 0 0 0 0 0 0 0 0 0 0 0 127 0" result="hardAlpha"/>
<feOffset dy="-0.0828472"/>
<feGaussianBlur stdDeviation="0.0828472"/>
<feComposite in2="hardAlpha" operator="arithmetic" k2="-1" k3="1"/>
<feColorMatrix type="matrix" values="0 0 0 0 0 0 0 0 0 0 0 0 0 0 0 0 0 0 1 0"/>
<feBlend mode="normal" in2="effect3_innerShadow_38_6756" result="effect4_innerShadow_38_6756"/>
</filter>
<filter id="filter14_ddii_38_6756" x="34.8933" y="20.7262" width="17.3935" height="10.9821" filterUnits="userSpaceOnUse" color-interpolation-filters="sRGB">
<feFlood flood-opacity="0" result="BackgroundImageFix"/>
<feColorMatrix in="SourceAlpha" type="matrix" values="0 0 0 0 0 0 0 0 0 0 0 0 0 0 0 0 0 0 127 0" result="hardAlpha"/>
<feOffset dy="0.082721"/>
<feGaussianBlur stdDeviation="0.0551473"/>
<feColorMatrix type="matrix" values="0 0 0 0 0 0 0 0 0 0 0 0 0 0 0 0 0 0 0.57 0"/>
<feBlend mode="normal" in2="BackgroundImageFix" result="effect1_dropShadow_38_6756"/>
<feColorMatrix in="SourceAlpha" type="matrix" values="0 0 0 0 0 0 0 0 0 0 0 0 0 0 0 0 0 0 127 0" result="hardAlpha"/>
<feOffset dy="-0.0551473"/>
<feGaussianBlur stdDeviation="0.0551473"/>
<feColorMatrix type="matrix" values="0 0 0 0 0.670588 0 0 0 0 0.717647 0 0 0 0 0.760784 0 0 0 1 0"/>
<feBlend mode="normal" in2="effect1_dropShadow_38_6756" result="effect2_dropShadow_38_6756"/>
<feBlend mode="normal" in="SourceGraphic" in2="effect2_dropShadow_38_6756" result="shape"/>
<feColorMatrix in="SourceAlpha" type="matrix" values="0 0 0 0 0 0 0 0 0 0 0 0 0 0 0 0 0 0 127 0" result="hardAlpha"/>
<feOffset dy="0.76027"/>
<feGaussianBlur stdDeviation="0.774798"/>
<feComposite in2="hardAlpha" operator="arithmetic" k2="-1" k3="1"/>
<feColorMatrix type="matrix" values="0 0 0 0 0.768627 0 0 0 0 0.768627 0 0 0 0 0.768627 0 0 0 1 0"/>
<feBlend mode="normal" in2="shape" result="effect3_innerShadow_38_6756"/>
<feColorMatrix in="SourceAlpha" type="matrix" values="0 0 0 0 0 0 0 0 0 0 0 0 0 0 0 0 0 0 127 0" result="hardAlpha"/>
<feOffset dy="-0.0828472"/>
<feGaussianBlur stdDeviation="0.0828472"/>
<feComposite in2="hardAlpha" operator="arithmetic" k2="-1" k3="1"/>
<feColorMatrix type="matrix" values="0 0 0 0 0.670588 0 0 0 0 0.717647 0 0 0 0 0.760784 0 0 0 1 0"/>
<feBlend mode="normal" in2="effect3_innerShadow_38_6756" result="effect4_innerShadow_38_6756"/>
</filter>
<filter id="filter15_d_38_6756" x="50.2571" y="21.4473" width="1.70962" height="2.14539" filterUnits="userSpaceOnUse" color-interpolation-filters="sRGB">
<feFlood flood-opacity="0" result="BackgroundImageFix"/>
<feColorMatrix in="SourceAlpha" type="matrix" values="0 0 0 0 0 0 0 0 0 0 0 0 0 0 0 0 0 0 127 0" result="hardAlpha"/>
<feOffset dx="0.0879027" dy="0.109192"/>
<feGaussianBlur stdDeviation="0.0545959"/>
<feColorMatrix type="matrix" values="0 0 0 0 1 0 0 0 0 1 0 0 0 0 1 0 0 0 0.24 0"/>
<feBlend mode="normal" in2="BackgroundImageFix" result="effect1_dropShadow_38_6756"/>
<feBlend mode="normal" in="SourceGraphic" in2="effect1_dropShadow_38_6756" result="shape"/>
</filter>
<filter id="filter16_d_38_6756" x="36.8005" y="27.3071" width="5.11633" height="2.02991" filterUnits="userSpaceOnUse" color-interpolation-filters="sRGB">
<feFlood flood-opacity="0" result="BackgroundImageFix"/>
<feColorMatrix in="SourceAlpha" type="matrix" values="0 0 0 0 0 0 0 0 0 0 0 0 0 0 0 0 0 0 127 0" result="hardAlpha"/>
<feOffset dx="0.0879027" dy="0.109192"/>
<feGaussianBlur stdDeviation="0.0545959"/>
<feColorMatrix type="matrix" values="0 0 0 0 1 0 0 0 0 1 0 0 0 0 1 0 0 0 0.24 0"/>
<feBlend mode="normal" in2="BackgroundImageFix" result="effect1_dropShadow_38_6756"/>
<feBlend mode="normal" in="SourceGraphic" in2="effect1_dropShadow_38_6756" result="shape"/>
</filter>
<filter id="filter17_ddi_38_6756" x="26.4559" y="9.4542" width="18.4841" height="13.0701" filterUnits="userSpaceOnUse" color-interpolation-filters="sRGB">
<feFlood flood-opacity="0" result="BackgroundImageFix"/>
<feColorMatrix in="SourceAlpha" type="matrix" values="0 0 0 0 0 0 0 0 0 0 0 0 0 0 0 0 0 0 127 0" result="hardAlpha"/>
<feOffset dx="-0.135191" dy="0.0675955"/>
<feGaussianBlur stdDeviation="0.0675955"/>
<feColorMatrix type="matrix" values="0 0 0 0 1 0 0 0 0 1 0 0 0 0 1 0 0 0 0.28 0"/>
<feBlend mode="normal" in2="BackgroundImageFix" result="effect1_dropShadow_38_6756"/>
<feColorMatrix in="SourceAlpha" type="matrix" values="0 0 0 0 0 0 0 0 0 0 0 0 0 0 0 0 0 0 127 0" result="hardAlpha"/>
<feOffset dy="-0.0675955"/>
<feGaussianBlur stdDeviation="0.0675955"/>
<feColorMatrix type="matrix" values="0 0 0 0 1 0 0 0 0 1 0 0 0 0 1 0 0 0 0.56 0"/>
<feBlend mode="normal" in2="effect1_dropShadow_38_6756" result="effect2_dropShadow_38_6756"/>
<feBlend mode="normal" in="SourceGraphic" in2="effect2_dropShadow_38_6756" result="shape"/>
<feColorMatrix in="SourceAlpha" type="matrix" values="0 0 0 0 0 0 0 0 0 0 0 0 0 0 0 0 0 0 127 0" result="hardAlpha"/>
<feOffset dx="-0.0675955" dy="0.202787"/>
<feGaussianBlur stdDeviation="0.101393"/>
<feComposite in2="hardAlpha" operator="arithmetic" k2="-1" k3="1"/>
<feColorMatrix type="matrix" values="0 0 0 0 0 0 0 0 0 0 0 0 0 0 0 0 0 0 0.75 0"/>
<feBlend mode="normal" in2="shape" result="effect3_innerShadow_38_6756"/>
</filter>
<filter id="filter18_f_38_6756" x="27.3552" y="20.2472" width="18.6048" height="8.91597" filterUnits="userSpaceOnUse" color-interpolation-filters="sRGB">
<feFlood flood-opacity="0" result="BackgroundImageFix"/>
<feBlend mode="normal" in="SourceGraphic" in2="BackgroundImageFix" result="shape"/>
<feGaussianBlur stdDeviation="0.946338" result="effect1_foregroundBlur_38_6756"/>
</filter>
<filter id="filter19_di_38_6756" x="2.96028" y="5.55273" width="3.48836" height="4.48253" filterUnits="userSpaceOnUse" color-interpolation-filters="sRGB">
<feFlood flood-opacity="0" result="BackgroundImageFix"/>
<feColorMatrix in="SourceAlpha" type="matrix" values="0 0 0 0 0 0 0 0 0 0 0 0 0 0 0 0 0 0 127 0" result="hardAlpha"/>
<feOffset dy="0.0880777"/>
<feGaussianBlur stdDeviation="0.0440388"/>
<feColorMatrix type="matrix" values="0 0 0 0 0.925374 0 0 0 0 0.925374 0 0 0 0 0.925374 0 0 0 0.37 0"/>
<feBlend mode="normal" in2="BackgroundImageFix" result="effect1_dropShadow_38_6756"/>
<feBlend mode="normal" in="SourceGraphic" in2="effect1_dropShadow_38_6756" result="shape"/>
<feColorMatrix in="SourceAlpha" type="matrix" values="0 0 0 0 0 0 0 0 0 0 0 0 0 0 0 0 0 0 127 0" result="hardAlpha"/>
<feOffset dx="-0.340683" dy="0.425854"/>
<feGaussianBlur stdDeviation="0.170342"/>
<feComposite in2="hardAlpha" operator="arithmetic" k2="-1" k3="1"/>
<feColorMatrix type="matrix" values="0 0 0 0 0 0 0 0 0 0 0 0 0 0 0 0 0 0 0.8 0"/>
<feBlend mode="normal" in2="shape" result="effect2_innerShadow_38_6756"/>
</filter>
<filter id="filter20_f_38_6756" x="4.54678" y="13.6428" width="19.5685" height="13.5267" filterUnits="userSpaceOnUse" color-interpolation-filters="sRGB">
<feFlood flood-opacity="0" result="BackgroundImageFix"/>
<feBlend mode="normal" in="SourceGraphic" in2="BackgroundImageFix" result="shape"/>
<feGaussianBlur stdDeviation="0.146029" result="effect1_foregroundBlur_38_6756"/>
</filter>
<filter id="filter21_di_38_6756" x="21.1558" y="21.0196" width="1.7011" height="1.40759" filterUnits="userSpaceOnUse" color-interpolation-filters="sRGB">
<feFlood flood-opacity="0" result="BackgroundImageFix"/>
<feColorMatrix in="SourceAlpha" type="matrix" values="0 0 0 0 0 0 0 0 0 0 0 0 0 0 0 0 0 0 127 0" result="hardAlpha"/>
<feOffset dy="-0.0487754"/>
<feGaussianBlur stdDeviation="0.0243877"/>
<feColorMatrix type="matrix" values="0 0 0 0 0.78755 0 0 0 0 0.78755 0 0 0 0 0.78755 0 0 0 0.19 0"/>
<feBlend mode="normal" in2="BackgroundImageFix" result="effect1_dropShadow_38_6756"/>
<feBlend mode="normal" in="SourceGraphic" in2="effect1_dropShadow_38_6756" result="shape"/>
<feColorMatrix in="SourceAlpha" type="matrix" values="0 0 0 0 0 0 0 0 0 0 0 0 0 0 0 0 0 0 127 0" result="hardAlpha"/>
<feOffset dy="0.243877"/>
<feGaussianBlur stdDeviation="0.121939"/>
<feComposite in2="hardAlpha" operator="arithmetic" k2="-1" k3="1"/>
<feColorMatrix type="matrix" values="0 0 0 0 0 0 0 0 0 0 0 0 0 0 0 0 0 0 0.74 0"/>
<feBlend mode="normal" in2="shape" result="effect2_innerShadow_38_6756"/>
</filter>
<linearGradient id="paint0_linear_38_6756" x1="5.86705" y1="6.44501" x2="6.15914" y2="2.10009" gradientUnits="userSpaceOnUse">
<stop stop-color="#3F3F3F"/>
<stop offset="1" stop-color="#5C5C5C"/>
</linearGradient>
<linearGradient id="paint1_linear_38_6756" x1="5.49902" y1="6.215" x2="5.78873" y2="2.02624" gradientUnits="userSpaceOnUse">
<stop stop-color="#AAAAAA"/>
<stop offset="1" stop-color="#C2C2C2"/>
</linearGradient>
<linearGradient id="paint2_linear_38_6756" x1="4.39524" y1="4.82821" x2="4.61405" y2="1.57326" gradientUnits="userSpaceOnUse">
<stop stop-color="#3F3F3F"/>
<stop offset="1" stop-color="#5C5C5C"/>
</linearGradient>
<linearGradient id="paint3_linear_38_6756" x1="4.11953" y1="4.6559" x2="4.33656" y2="1.51794" gradientUnits="userSpaceOnUse">
<stop stop-color="#AAAAAA"/>
<stop offset="1" stop-color="#C2C2C2"/>
</linearGradient>
<linearGradient id="paint4_linear_38_6756" x1="20.8708" y1="26.7814" x2="32.9075" y2="2.48373" gradientUnits="userSpaceOnUse">
<stop stop-color="#0D3244"/>
<stop offset="1" stop-color="#183E91"/>
</linearGradient>
<linearGradient id="paint5_linear_38_6756" x1="22.4178" y1="32.3473" x2="3.8331" y2="1.09263" gradientUnits="userSpaceOnUse">
<stop stop-color="#1B1B1B"/>
<stop offset="1" stop-color="#1B1B1B"/>
</linearGradient>
<linearGradient id="paint6_linear_38_6756" x1="42.7225" y1="6.40323" x2="30.4233" y2="16.7653" gradientUnits="userSpaceOnUse">
<stop stop-color="#E8EAE9"/>
<stop offset="0.498386" stop-color="#707072"/>
<stop offset="1" stop-color="#2F3032"/>
</linearGradient>
<linearGradient id="paint7_linear_38_6756" x1="36.2773" y1="27.7085" x2="37.3297" y2="24.2931" gradientUnits="userSpaceOnUse">
<stop stop-color="#ECEAEA"/>
<stop offset="1" stop-color="white" stop-opacity="0"/>
</linearGradient>
<linearGradient id="paint8_linear_38_6756" x1="6.34601" y1="15.5828" x2="1.63919" y2="12.0225" gradientUnits="userSpaceOnUse">
<stop stop-color="#E8EAE9"/>
<stop offset="0.498386" stop-color="#707072"/>
<stop offset="1" stop-color="#2F3032"/>
</linearGradient>
<linearGradient id="paint9_linear_38_6756" x1="11.7206" y1="25.543" x2="15.3868" y2="18.363" gradientUnits="userSpaceOnUse">
<stop stop-color="#040404"/>
<stop offset="1" stop-color="#3C3C3C" stop-opacity="0"/>
</linearGradient>
</defs>
</svg>
