<svg width="16" height="16" viewBox="0 0 16 16" fill="none" xmlns="http://www.w3.org/2000/svg">
<path d="M7.91921 12.4907C8.11306 12.2968 8.19383 12.0545 8.19383 11.8122C8.19383 11.5699 8.0969 11.3114 7.91921 11.1337C7.54767 10.7622 6.93383 10.7622 6.54613 11.1337L5.28614 12.3937L5.28614 1.3122C5.28614 0.77912 4.84998 0.342966 4.31691 0.342966C3.78383 0.342966 3.34768 0.77912 3.34768 1.3122L3.34767 12.3776L2.08767 11.1176C1.71614 10.746 1.10229 10.746 0.714598 11.1176C0.34306 11.4891 0.343059 12.103 0.714598 12.4907L3.62229 15.3983C3.99383 15.7699 4.60767 15.7699 4.99537 15.3983L7.91921 12.4907Z" fill="white"/>
<path d="M10.9884 0.617468L8.08075 3.52516C7.70921 3.8967 7.70921 4.51054 8.08075 4.89824C8.45229 5.26978 9.06613 5.26978 9.45383 4.89824L10.7138 3.63824L10.7138 14.7036C10.7138 15.2367 11.15 15.6729 11.6831 15.6729C12.2161 15.6729 12.6523 15.2367 12.6523 14.7036L12.6523 3.62208L13.9123 4.88208C14.2838 5.25362 14.8977 5.25362 15.2854 4.88208C15.4792 4.68824 15.5761 4.44593 15.5761 4.20362C15.5761 3.96132 15.4792 3.70285 15.2854 3.52516L12.3777 0.617468C11.9738 0.229777 11.3761 0.229777 10.9884 0.617468Z" fill="white"/>
</svg>
