<svg width="9" height="67" viewBox="0 0 9 67" fill="none" xmlns="http://www.w3.org/2000/svg">
<circle cx="4.83002" cy="4" r="4" fill="#5F00FB"/>
<circle cx="4.83002" cy="63" r="4" fill="#60BF95"/>
<path d="M4.83002 1.33333C3.35726 1.33333 2.16335 2.52724 2.16335 4C2.16335 5.47276 3.35726 6.66667 4.83002 6.66667C6.30278 6.66667 7.49668 5.47276 7.49668 4C7.49668 2.52724 6.30278 1.33333 4.83002 1.33333ZM4.83001 60.3333C3.35726 60.3333 2.16335 61.5272 2.16335 63C2.16335 64.4728 3.35726 65.6667 4.83001 65.6667C6.30277 65.6667 7.49668 64.4728 7.49668 63C7.49668 61.5272 6.30277 60.3333 4.83001 60.3333ZM4.83002 4L4.33002 4L4.33001 63L4.83001 63L5.33001 63L5.33002 4L4.83002 4Z" fill="#EAECF0"/>
</svg>
