<svg width="25" height="24" viewBox="0 0 25 24" fill="none" xmlns="http://www.w3.org/2000/svg">
<path fill-rule="evenodd" clip-rule="evenodd" d="M3.3942 7.82274C2.875 8.77128 2.875 9.91549 2.875 12.2039V13.725C2.875 17.6258 2.875 19.5763 4.04657 20.7881C5.21815 22 7.10376 22 10.875 22H14.875C18.6462 22 20.5319 22 21.7034 20.7881C22.875 19.5763 22.875 17.6258 22.875 13.725V12.2039C22.875 9.91549 22.875 8.77128 22.3558 7.82274C21.8366 6.87421 20.8881 6.28551 18.991 5.10812L16.991 3.86687C14.9856 2.62229 13.9829 2 12.875 2C11.7671 2 10.7644 2.62229 8.75903 3.86687L6.75903 5.10813C4.86195 6.28551 3.9134 6.87421 3.3942 7.82274ZM9.875 17.25C9.46079 17.25 9.125 17.5858 9.125 18C9.125 18.4142 9.46079 18.75 9.875 18.75H15.875C16.2892 18.75 16.625 18.4142 16.625 18C16.625 17.5858 16.2892 17.25 15.875 17.25H9.875Z" stroke="#ABB7C2" stroke-width="1.2"/>
</svg>
