<svg width="21" height="20" viewBox="0 0 21 20" fill="none" xmlns="http://www.w3.org/2000/svg">
<path fill-rule="evenodd" clip-rule="evenodd" d="M1.3942 5.82274C0.875 6.77128 0.875 7.91549 0.875 10.2039V11.725C0.875 15.6258 0.875 17.5763 2.04657 18.7881C3.21815 20 5.10376 20 8.875 20H12.875C16.6462 20 18.5319 20 19.7034 18.7881C20.875 17.5763 20.875 15.6258 20.875 11.725V10.2039C20.875 7.91549 20.875 6.77128 20.3558 5.82274C19.8366 4.87421 18.8881 4.28551 16.991 3.10812L14.991 1.86687C12.9856 0.62229 11.9829 0 10.875 0C9.76706 0 8.76439 0.62229 6.75903 1.86687L4.75903 3.10813C2.86195 4.28551 1.9134 4.87421 1.3942 5.82274ZM7.875 15.25C7.46079 15.25 7.125 15.5858 7.125 16C7.125 16.4142 7.46079 16.75 7.875 16.75H13.875C14.2892 16.75 14.625 16.4142 14.625 16C14.625 15.5858 14.2892 15.25 13.875 15.25H7.875Z" fill="white"/>
</svg>
