<svg width="22" height="22" viewBox="0 0 22 22" fill="none" xmlns="http://www.w3.org/2000/svg">
<path fill-rule="evenodd" clip-rule="evenodd" d="M11.0001 0.25C6.71986 0.25 3.25007 3.71979 3.25007 8V8.7041C3.25007 9.40102 3.04378 10.0824 2.6572 10.6622L1.50859 12.3851C0.175499 14.3848 1.19321 17.1028 3.5118 17.7351C4.26741 17.9412 5.0294 18.1155 5.79581 18.2581L5.79771 18.2632C6.5667 20.3151 8.62201 21.75 11 21.75C13.378 21.75 15.4333 20.3151 16.2023 18.2632L16.2042 18.2581C16.9706 18.1155 17.7327 17.9412 18.4883 17.7351C20.8069 17.1028 21.8246 14.3848 20.4915 12.3851L19.3429 10.6622C18.9564 10.0824 18.7501 9.40102 18.7501 8.7041V8C18.7501 3.71979 15.2803 0.25 11.0001 0.25ZM14.3765 18.537C12.1335 18.805 9.86647 18.8049 7.62352 18.5369C8.33447 19.5585 9.57104 20.25 11 20.25C12.429 20.25 13.6655 19.5585 14.3765 18.537Z" fill="#266FFF"/>
</svg>
