<svg width="23" height="22" viewBox="0 0 23 22" fill="none" xmlns="http://www.w3.org/2000/svg">
<path fill-rule="evenodd" clip-rule="evenodd" d="M11.8032 12.1929C11.743 12.1327 11.6638 12.0953 11.579 12.0869C11.4943 12.0786 11.4093 12.0999 11.3385 12.1472C11.2677 12.1945 11.2155 12.2649 11.1907 12.3463C11.166 12.4278 11.1703 12.5154 11.2029 12.594C11.2355 12.6727 11.2943 12.7377 11.3694 12.7778C11.4445 12.8179 11.5312 12.8308 11.6147 12.8142C11.6983 12.7976 11.7734 12.7525 11.8275 12.6867C11.8815 12.6209 11.911 12.5384 11.911 12.4532C11.9111 12.4049 11.9016 12.357 11.8831 12.3123C11.8646 12.2676 11.8374 12.2271 11.8032 12.1929ZM17.6317 3.8919L20.1042 6.36448L20.564 5.90556L18.0904 3.4321L17.6317 3.8919ZM9.55877 1.8921H13.5269V1.1001H9.55877V1.8921ZM16.2637 7.3206L15.8521 7.73222C15.825 7.75922 15.8034 7.79132 15.7887 7.82665C15.774 7.86199 15.7664 7.89988 15.7664 7.93816C15.7663 7.97644 15.7739 8.01435 15.7885 8.04972C15.8031 8.08509 15.8246 8.11723 15.8516 8.14429C15.8787 8.17136 15.9108 8.19282 15.9462 8.20745C15.9816 8.22208 16.0195 8.22958 16.0578 8.22954C16.096 8.2295 16.1339 8.22191 16.1693 8.2072C16.2046 8.1925 16.2367 8.17096 16.2637 8.14384L16.6753 7.73222C17.7933 8.94434 18.4437 10.5145 18.5103 12.1621H17.9282C17.851 12.1621 17.777 12.1928 17.7224 12.2474C17.6678 12.302 17.6372 12.376 17.6372 12.4532C17.6372 12.5304 17.6678 12.6044 17.7224 12.659C17.777 12.7136 17.851 12.7443 17.9282 12.7443H18.5103C18.4437 14.3918 17.7933 15.962 16.6753 17.174L16.2637 16.7626C16.2091 16.7082 16.1351 16.6777 16.058 16.6778C15.9809 16.6778 15.907 16.7085 15.8525 16.763C15.798 16.8175 15.7674 16.8914 15.7673 16.9685C15.7672 17.0456 15.7977 17.1196 15.8521 17.1742L16.2637 17.5858C15.0517 18.7038 13.4816 19.3542 11.834 19.4206V18.8385C11.8319 18.7626 11.8003 18.6906 11.746 18.6377C11.6916 18.5848 11.6187 18.5552 11.5428 18.5552C11.467 18.5552 11.3941 18.5848 11.3397 18.6377C11.2853 18.6906 11.2538 18.7626 11.2517 18.8385V19.4206C9.60413 19.3541 8.03397 18.7038 6.82197 17.5858L7.23359 17.1742C7.26063 17.1472 7.28208 17.1151 7.29672 17.0797C7.31136 17.0444 7.3189 17.0066 7.31891 16.9683C7.31892 16.9301 7.3114 16.8922 7.29678 16.8569C7.28216 16.8216 7.26073 16.7895 7.2337 16.7624C7.20667 16.7354 7.17458 16.714 7.13926 16.6993C7.10394 16.6847 7.06609 16.6771 7.02786 16.6771C6.98962 16.6771 6.95176 16.6846 6.91644 16.6993C6.88111 16.7139 6.84901 16.7353 6.82197 16.7623L6.41035 17.174C5.29237 15.962 4.64193 14.3918 4.57533 12.7443H5.15745C5.23464 12.7443 5.30867 12.7136 5.36326 12.659C5.41784 12.6044 5.44851 12.5304 5.44851 12.4532C5.44851 12.376 5.41784 12.302 5.36326 12.2474C5.30867 12.1928 5.23464 12.1621 5.15745 12.1621H4.57533C4.64197 10.5145 5.2924 8.94434 6.41035 7.73222L6.82197 8.14384C6.84897 8.17096 6.88106 8.1925 6.9164 8.2072C6.95174 8.22191 6.98963 8.2295 7.02791 8.22954C7.06619 8.22958 7.1041 8.22208 7.13947 8.20745C7.17484 8.19282 7.20698 8.17136 7.23404 8.14429C7.26111 8.11723 7.28257 8.08509 7.2972 8.04972C7.31183 8.01435 7.31933 7.97644 7.31929 7.93816C7.31925 7.89988 7.31166 7.86199 7.29695 7.82665C7.28224 7.79132 7.26071 7.75922 7.23359 7.73222L6.82197 7.3206C8.03397 6.20263 9.60413 5.55226 11.2517 5.4858V6.06792C11.2538 6.14376 11.2853 6.21579 11.3397 6.26869C11.3941 6.32159 11.467 6.35119 11.5428 6.35119C11.6187 6.35119 11.6916 6.32159 11.746 6.26869C11.8003 6.21579 11.8319 6.14376 11.834 6.06792V5.4858C13.4816 5.55222 15.0517 6.2026 16.2637 7.3206ZM11.544 4.8973C13.2921 4.89754 14.986 5.50387 16.3371 6.61298C17.6882 7.72209 18.613 9.26536 18.9538 10.9799C19.2947 12.6943 19.0306 14.474 18.2064 16.0156C17.3823 17.5571 16.0491 18.7653 14.4341 19.4341C12.8191 20.103 11.0221 20.1912 9.34935 19.6837C7.67659 19.1762 6.23155 18.1044 5.26041 16.6509C4.28927 15.1975 3.85213 13.4522 4.02347 11.7126C4.1948 9.97299 4.964 8.34658 6.20003 7.1105C6.90102 6.40767 7.73402 5.85032 8.65114 5.47051C9.56825 5.09069 10.5514 4.89588 11.544 4.8973ZM17.5162 6.4813C18.8979 7.86304 19.7577 9.68111 19.9492 11.6257C20.1407 13.5704 19.652 15.5212 18.5663 17.1459C17.4807 18.7706 15.8653 19.9686 13.9954 20.5358C12.1255 21.103 10.1167 21.0043 8.31147 20.2564C6.5062 19.5086 5.01607 18.158 4.09499 16.4347C3.17391 14.7113 2.87886 12.7219 3.26012 10.8055C3.64139 8.88899 4.67537 7.164 6.18589 5.92441C7.69641 4.68483 9.59001 4.00734 11.544 4.0074C12.6532 4.0061 13.7517 4.22397 14.7764 4.64848C15.8011 5.07299 16.7318 5.69579 17.5151 6.48108L17.5162 6.4813ZM17.374 5.5617L17.9256 5.01016L18.9851 6.06968L18.4344 6.6221C18.2731 6.43143 18.1039 6.24758 17.9267 6.07056C17.7495 5.89353 17.5653 5.72391 17.374 5.5617ZM11.544 3.42506C11.8374 3.42506 12.1271 3.43892 12.4133 3.46664V2.47466H10.6753V3.46664C10.9613 3.43936 11.2511 3.4255 11.5447 3.42506H11.544ZM11.2517 7.69438C11.2506 7.65547 11.2573 7.61674 11.2715 7.58048C11.2856 7.54421 11.3069 7.51116 11.3341 7.48326C11.3612 7.45536 11.3937 7.43318 11.4295 7.41804C11.4654 7.4029 11.5039 7.39509 11.5428 7.39509C11.5818 7.39509 11.6203 7.4029 11.6562 7.41804C11.692 7.43318 11.7245 7.45536 11.7516 7.48326C11.7788 7.51116 11.8 7.54421 11.8142 7.58048C11.8283 7.61674 11.8351 7.65547 11.834 7.69438V11.5483C11.989 11.5983 12.1286 11.6872 12.2394 11.8066C12.3502 11.926 12.4284 12.0719 12.4666 12.2302C12.5048 12.3885 12.5016 12.554 12.4574 12.7108C12.4132 12.8676 12.3295 13.0104 12.2143 13.1254C12.099 13.2405 11.9561 13.3241 11.7993 13.3681C11.6425 13.4121 11.477 13.415 11.3187 13.3766C11.1604 13.3382 11.0147 13.2598 10.8954 13.1489C10.7761 13.038 10.6874 12.8983 10.6376 12.7432H8.02801C7.95111 12.7432 7.87735 12.7126 7.82298 12.6582C7.7686 12.6039 7.73805 12.5301 7.73805 12.4532C7.73805 12.3763 7.7686 12.3025 7.82298 12.2482C7.87735 12.1938 7.95111 12.1632 8.02801 12.1632H10.6376C10.6837 12.0192 10.7635 11.8882 10.8703 11.7811C10.977 11.674 11.1078 11.5938 11.2517 11.5472V7.69438Z" fill="#475467"/>
</svg>
