<svg width="23" height="22" viewBox="0 0 23 22" fill="none" xmlns="http://www.w3.org/2000/svg">
<g clip-path="url(#clip0_302_4417)">
<path d="M18.1227 7.2439C16.9068 7.2439 15.7408 7.7269 14.881 8.58664C14.0213 9.44639 13.5383 10.6125 13.5383 11.8283C13.5383 14.821 16.8965 18.561 18.1259 18.561C19.3553 18.561 22.7103 14.821 22.7103 11.8283C22.7108 11.2259 22.5924 10.6293 22.3619 10.0727C22.1315 9.51607 21.7935 9.01038 21.3674 8.58455C20.9413 8.15872 20.4353 7.82112 19.8786 7.59107C19.3218 7.36103 18.7251 7.24305 18.1227 7.2439ZM18.1227 13.9636C17.69 13.9642 17.2668 13.8365 16.9067 13.5966C16.5466 13.3567 16.2658 13.0153 16.0998 12.6157C15.9338 12.2162 15.89 11.7763 15.974 11.3519C16.058 10.9274 16.2661 10.5374 16.5718 10.2312C16.8776 9.92502 17.2672 9.7164 17.6916 9.63175C18.1159 9.5471 18.5558 9.59022 18.9556 9.75566C19.3555 9.9211 19.6972 10.2014 19.9377 10.5611C20.1782 10.9209 20.3065 11.3439 20.3065 11.7765C20.3065 12.356 20.0765 12.9118 19.6671 13.3219C19.2576 13.7319 18.7022 13.9627 18.1227 13.9636Z" fill="#475467"/>
<path d="M17.6729 21.4175H17.6018C8.57529 20.2593 8.31323 20.1784 6.60176 19.7999C4.75764 19.3825 3.33088 18.9102 2.39588 18.3246C1.20205 17.574 0.817054 16.749 0.817054 15.9402C0.815439 15.6856 0.865991 15.4334 0.965592 15.1992C1.06519 14.9649 1.21173 14.7536 1.39617 14.5781C1.79726 14.2162 2.26863 13.9409 2.78088 13.7693C3.82264 13.3681 5.65382 13.1028 6.84441 12.9022C8.87941 12.5625 11.5032 12.2131 11.5032 10.9611C11.5032 10.6602 11.1441 10.2137 10.5326 9.96459C9.63717 9.67889 8.72103 9.46257 7.79235 9.31753C7.76749 9.31392 7.74359 9.30545 7.72201 9.2926C7.70043 9.27975 7.68159 9.26278 7.66657 9.24265C7.65155 9.22252 7.64064 9.19963 7.63447 9.17529C7.62829 9.15094 7.62697 9.12562 7.63058 9.10076C7.63419 9.07591 7.64267 9.05201 7.65552 9.03043C7.66836 9.00885 7.68533 8.99001 7.70546 8.97499C7.72559 8.95997 7.74848 8.94906 7.77283 8.94288C7.79717 8.93671 7.82249 8.93539 7.84735 8.939C9.06382 9.05223 12.1632 9.49547 12.1632 10.9934C12.1731 11.2014 12.1344 11.4088 12.0502 11.5991C11.966 11.7895 11.8385 11.9577 11.6779 12.0902C11.3067 12.4053 10.8768 12.6439 10.4129 12.7922C9.29235 13.1646 8.14171 13.4396 6.97382 13.614C5.788 13.7903 4.62065 14.074 3.48617 14.4616C2.19205 14.9502 2.1047 15.5131 2.1047 15.8949C2.1047 16.3964 2.44764 16.9334 3.28882 17.4025C4.13 17.8716 5.13941 18.1628 6.90588 18.5478C8.74029 18.9458 11.1668 19.1755 17.7441 19.7805C17.9612 19.7899 18.1656 19.8852 18.3125 20.0454C18.4593 20.2056 18.5365 20.4175 18.5271 20.6346C18.5176 20.8517 18.4223 21.0561 18.2621 21.203C18.102 21.3498 17.89 21.427 17.6729 21.4175Z" fill="#475467"/>
<path d="M10.1994 5.20528L9.3097 3.28999C9.21264 3.13146 9.13176 2.93087 8.30676 2.78852C8.26793 2.78852 8.22588 2.78852 8.18705 2.76911C8.49554 2.64246 8.7505 2.41266 8.90839 2.11893C9.06628 1.82521 9.11731 1.48578 9.05277 1.15861C8.98823 0.831447 8.81211 0.536831 8.5545 0.325076C8.29689 0.11332 7.97376 -0.00244141 7.64029 -0.00244141C7.30681 -0.00244141 6.98368 0.11332 6.72607 0.325076C6.46846 0.536831 6.29235 0.831447 6.2278 1.15861C6.16326 1.48578 6.21429 1.82521 6.37218 2.11893C6.53008 2.41266 6.78503 2.64246 7.09352 2.76911L6.97058 2.78852C6.14882 2.93087 6.0647 3.13146 5.96764 3.28999L5.07793 5.20528C5.05131 5.25766 5.03552 5.31488 5.03153 5.3735C5.02753 5.43212 5.03541 5.49095 5.05468 5.54646C5.07395 5.60196 5.10423 5.65301 5.14369 5.69655C5.18316 5.74008 5.231 5.7752 5.28436 5.79981C5.33771 5.82442 5.39549 5.83801 5.45422 5.83977C5.51295 5.84153 5.57143 5.83142 5.62617 5.81004C5.6809 5.78867 5.73076 5.75647 5.77275 5.71537C5.81475 5.67427 5.84802 5.62513 5.87058 5.57087L6.47558 4.30587V7.8647C6.47558 8.00198 6.53012 8.13365 6.6272 8.23073C6.72427 8.3278 6.85594 8.38234 6.99323 8.38234C7.13052 8.38234 7.26218 8.3278 7.35926 8.23073C7.45634 8.13365 7.51088 8.00198 7.51088 7.8647V6.46381C7.52312 6.44005 7.54168 6.42011 7.56451 6.4062C7.58733 6.39228 7.61355 6.38492 7.64029 6.38492C7.66702 6.38492 7.69324 6.39228 7.71607 6.4062C7.7389 6.42011 7.75745 6.44005 7.7697 6.46381V7.87764C7.7697 8.01492 7.82424 8.14659 7.92131 8.24367C8.01839 8.34074 8.15006 8.39528 8.28735 8.39528C8.42463 8.39528 8.5563 8.34074 8.65338 8.24367C8.75045 8.14659 8.80499 8.01492 8.80499 7.87764V4.31881L9.39382 5.58381C9.41637 5.63807 9.44965 5.68722 9.49164 5.72831C9.53364 5.76941 9.5835 5.80161 9.63823 5.82298C9.69296 5.84436 9.75145 5.85447 9.81018 5.85271C9.86891 5.85095 9.92668 5.83736 9.98004 5.81275C10.0334 5.78814 10.0812 5.75302 10.1207 5.70949C10.1602 5.66595 10.1904 5.61491 10.2097 5.5594C10.229 5.50389 10.2369 5.44506 10.2329 5.38644C10.2289 5.32782 10.2131 5.2706 10.1865 5.21822L10.1994 5.20528Z" fill="#475467"/>
</g>
<defs>
<clipPath id="clip0_302_4417">
<rect width="22" height="22" fill="white" transform="translate(0.830017)"/>
</clipPath>
</defs>
</svg>
