<svg width="24" height="22" viewBox="0 0 24 22" fill="none" xmlns="http://www.w3.org/2000/svg">
  <path
    d="M17.8493 16.5139H20.4233V19.0876H17.8493V16.5139ZM12.8416 16.5139H15.4156V19.0876H12.8416V16.5139ZM7.83416 16.5139H10.4081V19.0876H7.83416V16.5139ZM2.82703 16.5139H5.40072V19.0876H2.82703V16.5139ZM17.8493 11.2662H20.4233V13.8399H17.8493V11.2662ZM12.8416 11.2662H15.4156V13.8399H12.8416V11.2662ZM7.83416 11.2662H10.4081V13.8399H7.83416V11.2662ZM2.82703 11.2662H5.40072V13.8399H2.82703V11.2662ZM0.229248 8.60322H23.0207V6.57101C23.0207 5.8734 22.7351 5.23869 22.2758 4.77881C21.8156 4.31977 21.1809 4.03387 20.4836 4.03387H19.0331V5.42712C19.0331 5.94452 18.8215 6.41517 18.4811 6.75548C18.1411 7.09578 17.6705 7.30745 17.1531 7.30745C16.6354 7.30745 16.1647 7.09578 15.8244 6.75548C15.4841 6.41517 15.2727 5.94452 15.2727 5.42712V4.03387H7.97669V5.42712C7.97669 5.94339 7.76559 6.41319 7.425 6.75434C7.08271 7.09635 6.61291 7.30745 6.09692 7.30745C5.58037 7.30745 5.11085 7.09635 4.7697 6.75548C4.42797 6.41319 4.21659 5.94339 4.21659 5.42712V4.03387H2.76639C2.06934 4.03387 1.43435 4.31977 0.97475 4.77937C0.514868 5.23869 0.229248 5.8734 0.229248 6.57101V8.60322ZM23.0207 9.11354H0.229248V18.7033C0.229248 19.4007 0.514868 20.0351 0.97475 20.495C1.43378 20.9546 2.06849 21.2402 2.76639 21.2402H20.4836C21.1815 21.2402 21.8162 20.9546 22.2758 20.4955C22.7351 20.0357 23.0207 19.401 23.0207 18.7033V9.11354ZM17.1531 0.76001C16.7759 0.76001 16.4331 0.913871 16.1849 1.1618C15.9375 1.41031 15.7831 1.75316 15.7831 2.12917V5.42712C15.7831 5.80369 15.9372 6.14627 16.1854 6.39448C16.4334 6.64242 16.7762 6.79713 17.1525 6.79713C17.5294 6.79713 17.8722 6.64242 18.1202 6.39448C18.3684 6.14627 18.5228 5.80369 18.5228 5.42712V2.12917C18.5228 1.75316 18.3681 1.4103 18.1202 1.16237C17.8725 0.91387 17.5296 0.76001 17.1531 0.76001ZM6.09692 0.76001C5.7195 0.76001 5.37692 0.913587 5.12956 1.16124C4.88162 1.4103 4.72691 1.75316 4.72691 2.12917V5.42712C4.72691 5.80454 4.88077 6.1474 5.12842 6.39448C5.37692 6.64355 5.7195 6.79713 6.09664 6.79713C6.47406 6.79713 6.81664 6.64355 7.06401 6.3959C7.31279 6.1474 7.46637 5.80454 7.46637 5.42712V2.12917C7.46637 1.75316 7.31194 1.4103 7.06401 1.16237C6.81664 0.913587 6.47407 0.76001 6.09692 0.76001Z"
    fill="none"
    stroke="currentColor"
    stroke-width="1"
  />
</svg>
