<svg width="25" height="24" viewBox="0 0 25 24" fill="none" xmlns="http://www.w3.org/2000/svg">
<path d="M15.3901 12.3228C16.4063 11.5927 17.688 11.5482 18.7358 12.1899L18.9419 12.3276C20.99 13.808 22.384 16.0917 22.4058 19.2222V19.2964C22.4058 19.7264 22.1922 20.1511 21.687 20.5728C21.1747 21.0004 20.4058 21.384 19.4243 21.7026C17.4659 22.3384 14.8159 22.6655 12.1372 22.6655C9.45847 22.6655 6.80861 22.3384 4.8501 21.7026C3.86832 21.3839 3.09885 21.0005 2.58643 20.5728C2.08128 20.1511 1.86768 19.7264 1.86768 19.2964C1.86776 16.325 3.09947 14.1113 4.95459 12.6167L5.3335 12.3276C6.34754 11.5951 7.629 11.5474 8.67822 12.186L8.88428 12.3228C9.80034 12.9811 10.9244 13.3686 12.1372 13.3687C13.2743 13.3687 14.3333 13.0272 15.2153 12.4429L15.3901 12.3228ZM12.1362 1.35791C14.5551 1.35791 16.516 3.3188 16.5161 5.73682C16.5161 8.15566 14.5545 10.1167 12.1362 10.1167C9.7183 10.1165 7.75732 8.15501 7.75732 5.73682C7.75744 3.31884 9.71827 1.35808 12.1362 1.35791Z" stroke="#ABB7C2" stroke-width="1.2"/>
</svg>
