<svg width="25" height="24" viewBox="0 0 25 24" fill="none" xmlns="http://www.w3.org/2000/svg">
<path fill-rule="evenodd" clip-rule="evenodd" d="M23.0057 19.2967C23.0057 24.5889 1.26807 24.5889 1.26807 19.2967C1.26807 15.9251 2.76933 13.4408 4.98194 11.8415C6.27275 10.9089 7.94122 10.906 9.23491 11.8358C10.0522 12.4232 11.054 12.7684 12.1373 12.7684C13.2205 12.7684 14.223 12.4224 15.0396 11.8358C16.3333 10.906 18.0018 10.9082 19.2933 11.8415C21.5059 13.4408 23.0064 15.9259 23.0064 19.2967H23.0057ZM12.1365 0.758301C9.38699 0.758301 7.1578 2.98749 7.1578 5.73704C7.1578 8.48659 9.38699 10.7165 12.1365 10.7165C14.8861 10.7165 17.116 8.48731 17.116 5.73704C17.116 2.98749 14.8868 0.758301 12.1365 0.758301Z" fill="white"/>
</svg>
