<svg width="25" height="24" viewBox="0 0 25 24" fill="none" xmlns="http://www.w3.org/2000/svg">
<path d="M21.6174 15.6646C21.6161 16.8827 21.1318 18.0506 20.2707 18.9122C19.4096 19.7738 18.2419 20.2587 17.0238 20.2606H6.411C5.19246 20.2593 4.02418 19.7747 3.16254 18.9131C2.3009 18.0514 1.81627 16.8831 1.815 15.6646V8.575C1.81627 7.35646 2.3009 6.18819 3.16254 5.32654C4.02418 4.4649 5.19246 3.98027 6.411 3.979H17.0238C18.2419 3.98091 19.4096 4.46582 20.2707 5.32739C21.1318 6.18896 21.6161 7.35687 21.6174 8.575V9.4198H16.899C16.1829 9.4198 15.4962 9.70427 14.9898 10.2106C14.4835 10.717 14.199 11.4037 14.199 12.1198C14.199 12.8359 14.4835 13.5226 14.9898 14.029C15.4962 14.5353 16.1829 14.8198 16.899 14.8198H21.6174V15.6646Z" fill="white"/>
<path d="M22.3902 10.2002H16.899C16.3879 10.2002 15.8977 10.4032 15.5363 10.7647C15.1748 11.1261 14.9718 11.6163 14.9718 12.1274C14.9718 12.6385 15.1748 13.1287 15.5363 13.4901C15.8977 13.8516 16.3879 14.0546 16.899 14.0546H22.935V10.2002H22.3902ZM17.0958 13.0226C16.9172 13.0231 16.7425 12.9705 16.5938 12.8717C16.4451 12.7728 16.3291 12.632 16.2604 12.4672C16.1917 12.3023 16.1735 12.1208 16.208 11.9456C16.2426 11.7704 16.3284 11.6094 16.4545 11.483C16.5806 11.3565 16.7414 11.2703 16.9165 11.2353C17.0916 11.2003 17.2731 11.218 17.4382 11.2863C17.6032 11.3545 17.7443 11.4701 17.8436 11.6186C17.9428 11.7671 17.9958 11.9416 17.9958 12.1202C17.9958 12.3591 17.9011 12.5883 17.7323 12.7574C17.5636 12.9266 17.3347 13.022 17.0958 13.0226Z" fill="white"/>
</svg>
