<svg width="24" height="22" viewBox="0 0 24 22" fill="none" xmlns="http://www.w3.org/2000/svg">
<path d="M17.8493 16.7097H20.4233V19.2834H17.8493V16.7097ZM12.8416 16.7097H15.4156V19.2834H12.8416V16.7097ZM7.83416 16.7097H10.4081V19.2834H7.83416V16.7097ZM2.82703 16.7097H5.40072V19.2834H2.82703V16.7097ZM17.8493 11.462H20.4233V14.0357H17.8493V11.462ZM12.8416 11.462H15.4156V14.0357H12.8416V11.462ZM7.83416 11.462H10.4081V14.0357H7.83416V11.462ZM2.82703 11.462H5.40072V14.0357H2.82703V11.462ZM0.229248 8.79902H23.0207V6.76681C23.0207 6.0692 22.7351 5.43449 22.2758 4.97461C21.8156 4.51557 21.1809 4.22967 20.4836 4.22967H19.0331V5.62292C19.0331 6.14032 18.8215 6.61097 18.4811 6.95128C18.1411 7.29158 17.6705 7.50325 17.1531 7.50325C16.6354 7.50325 16.1647 7.29158 15.8244 6.95128C15.4841 6.61097 15.2727 6.14032 15.2727 5.62292V4.22967H7.97669V5.62292C7.97669 6.13919 7.76559 6.60899 7.425 6.95014C7.08271 7.29215 6.61291 7.50325 6.09692 7.50325C5.58037 7.50325 5.11085 7.29215 4.7697 6.95128C4.42797 6.60899 4.21659 6.13919 4.21659 5.62292V4.22967H2.76639C2.06934 4.22967 1.43435 4.51557 0.97475 4.97517C0.514868 5.43449 0.229248 6.0692 0.229248 6.76681V8.79902ZM23.0207 9.30934H0.229248V18.8991C0.229248 19.5965 0.514868 20.2309 0.97475 20.6908C1.43378 21.1504 2.06849 21.436 2.76639 21.436H20.4836C21.1815 21.436 21.8162 21.1504 22.2758 20.6913C22.7351 20.2315 23.0207 19.5968 23.0207 18.8991V9.30934ZM17.1531 0.955811C16.7759 0.955811 16.4331 1.10967 16.1849 1.35761C15.9375 1.60611 15.7831 1.94896 15.7831 2.32497V5.62292C15.7831 5.99949 15.9372 6.34207 16.1854 6.59029C16.4334 6.83822 16.7762 6.99293 17.1525 6.99293C17.5294 6.99293 17.8722 6.83822 18.1202 6.59029C18.3684 6.34207 18.5228 5.99949 18.5228 5.62292V2.32497C18.5228 1.94896 18.3681 1.60611 18.1202 1.35817C17.8725 1.10967 17.5296 0.955811 17.1531 0.955811ZM6.09692 0.955811C5.7195 0.955811 5.37692 1.10939 5.12956 1.35704C4.88162 1.60611 4.72691 1.94896 4.72691 2.32497V5.62292C4.72691 6.00034 4.88077 6.3432 5.12842 6.59029C5.37692 6.83935 5.7195 6.99293 6.09664 6.99293C6.47406 6.99293 6.81664 6.83935 7.06401 6.5917C7.31279 6.3432 7.46637 6.00034 7.46637 5.62292V2.32497C7.46637 1.94896 7.31194 1.60611 7.06401 1.35817C6.81664 1.10939 6.47407 0.955811 6.09692 0.955811Z" fill="white"/>
</svg>
