<svg width="23" height="22" viewBox="0 0 23 22" fill="none" xmlns="http://www.w3.org/2000/svg">
<path d="M10.4125 6.1875C11.7414 6.1875 12.8187 5.11019 12.8187 3.78125C12.8187 2.45231 11.7414 1.375 10.4125 1.375C9.08354 1.375 8.00623 2.45231 8.00623 3.78125C8.00623 5.11019 9.08354 6.1875 10.4125 6.1875Z" fill="#475467"/>
<path d="M8.4668 10.3258L8.9982 13.5142C9.10518 14.1562 9.43643 14.7395 9.93303 15.1602C10.4296 15.581 11.0594 15.8119 11.7103 15.812L15.2468 15.8125C15.403 15.8125 15.5537 15.8709 15.669 15.9763C15.7844 16.0817 15.8562 16.2264 15.8704 16.382L16.1993 19.9998C16.2149 20.1706 16.2938 20.3295 16.4205 20.4452C16.5472 20.5609 16.7126 20.625 16.8841 20.625H17.6312C17.7215 20.625 17.8109 20.6072 17.8943 20.5727C17.9777 20.5381 18.0535 20.4875 18.1174 20.4236C18.1812 20.3598 18.2319 20.284 18.2664 20.2006C18.301 20.1172 18.3187 20.0278 18.3187 19.9375V14.4375C18.3187 14.0728 18.1738 13.7231 17.916 13.4652C17.6581 13.2074 17.3084 13.0625 16.9437 13.0625H14.2661C14.1178 13.0625 13.9744 13.0099 13.8612 12.9141C13.7481 12.8182 13.6726 12.6854 13.6482 12.5391L13.1657 9.64396C13.085 9.10347 12.8258 8.60551 12.4294 8.2293C12.0331 7.8531 11.5222 7.62027 10.9783 7.56786C10.6201 7.54215 10.2608 7.59803 9.92731 7.73131C9.59386 7.86458 9.29499 8.07177 9.05321 8.33728C8.81143 8.60278 8.63303 8.91968 8.53145 9.26411C8.42988 9.60855 8.40777 9.97154 8.4668 10.3258Z" fill="#475467"/>
<path d="M6.71094 7.4718C6.68833 7.29089 6.59477 7.12637 6.45086 7.01444C6.30694 6.9025 6.12446 6.85233 5.94354 6.87494C5.76263 6.89755 5.59811 6.99111 5.48618 7.13502C5.37425 7.27894 5.32407 7.46143 5.34668 7.64234L6.18494 14.3471C6.33044 15.511 6.896 16.5817 7.77534 17.3579C8.65468 18.1341 9.78724 18.5625 10.9602 18.5624H13.5061C13.6884 18.5624 13.8633 18.49 13.9922 18.3611C14.1211 18.2321 14.1936 18.0573 14.1936 17.8749C14.1936 17.6926 14.1211 17.5177 13.9922 17.3888C13.8633 17.2599 13.6884 17.1874 13.5061 17.1874H10.9601C10.1223 17.1874 9.31329 16.8814 8.68517 16.327C8.05705 15.7725 7.65307 15.0077 7.54916 14.1763L6.71094 7.4718Z" fill="#475467"/>
</svg>
