<svg width="25" height="24" viewBox="0 0 25 24" fill="none" xmlns="http://www.w3.org/2000/svg">
<path d="M22.935 9.31918H21.7518V8.93278C21.7499 7.55466 21.2016 6.23353 20.2271 5.25905C19.2526 4.28458 17.9315 3.73628 16.5534 3.73438H7.0134C5.63529 3.73628 4.31416 4.28458 3.33968 5.25905C2.36521 6.23353 1.81691 7.55466 1.815 8.93278V15.3072C1.81691 16.6853 2.36521 18.0064 3.33968 18.9809C4.31416 19.9554 5.63529 20.5037 7.0134 20.5056H16.5534C17.9315 20.5037 19.2526 19.9554 20.2271 18.9809C21.2016 18.0064 21.7499 16.6853 21.7518 15.3072V14.9184H22.935V9.31918ZM21.495 13.4784H16.4262C16.2429 13.4861 16.0598 13.4566 15.8882 13.3918C15.7165 13.3269 15.5597 13.228 15.4273 13.101C15.2948 12.974 15.1894 12.8215 15.1174 12.6527C15.0454 12.4839 15.0083 12.3023 15.0083 12.1188C15.0083 11.9353 15.0454 11.7536 15.1174 11.5848C15.1894 11.4161 15.2948 11.2636 15.4273 11.1366C15.5597 11.0095 15.7165 10.9106 15.8882 10.8458C16.0598 10.7809 16.2429 10.7515 16.4262 10.7592H21.495V13.4784ZM20.3118 15.3072C20.3105 16.3036 19.9142 17.2588 19.2096 17.9634C18.505 18.6679 17.5498 19.0643 16.5534 19.0656H7.0134C6.017 19.0643 5.06178 18.6679 4.35722 17.9634C3.65265 17.2588 3.25627 16.3036 3.255 15.3072V8.93278C3.25627 7.93638 3.65265 6.98115 4.35722 6.27659C5.06178 5.57203 6.017 5.17564 7.0134 5.17437H16.5534C17.5498 5.17564 18.505 5.57203 19.2096 6.27659C19.9142 6.98115 20.3105 7.93638 20.3118 8.93278V9.31918H16.4262C16.0517 9.30821 15.6787 9.37251 15.3295 9.50827C14.9802 9.64403 14.6618 9.84848 14.393 10.1095C14.1242 10.3706 13.9105 10.6829 13.7645 11.028C13.6186 11.3732 13.5434 11.7441 13.5434 12.1188C13.5434 12.4935 13.6186 12.8644 13.7645 13.2095C13.9105 13.5546 14.1242 13.867 14.393 14.128C14.6618 14.3891 14.9802 14.5935 15.3295 14.7293C15.6787 14.865 16.0517 14.9293 16.4262 14.9184H20.3118V15.3072Z" fill="#ABB7C2"/>
<path d="M17.5614 12.1199C17.5614 12.3098 17.5051 12.4954 17.3996 12.6533C17.2941 12.8111 17.1442 12.9342 16.9688 13.0068C16.7933 13.0795 16.6003 13.0985 16.4141 13.0615C16.2279 13.0244 16.0568 12.933 15.9226 12.7987C15.7883 12.6645 15.6969 12.4934 15.6598 12.3072C15.6228 12.121 15.6418 11.928 15.7145 11.7525C15.7871 11.5771 15.9102 11.4272 16.068 11.3217C16.2259 11.2162 16.4115 11.1599 16.6014 11.1599C16.856 11.1599 17.1002 11.2611 17.2802 11.4411C17.4602 11.6211 17.5614 11.8653 17.5614 12.1199Z" fill="#ABB7C2"/>
</svg>
